<svg width="57" height="57" viewBox="0 0 57 57" fill="none" xmlns="http://www.w3.org/2000/svg">
<path fill-rule="evenodd" clip-rule="evenodd" d="M31.8756 3.24419L35.2696 5.7847C36.1978 6.4795 37.1748 6.83508 38.3325 6.89954L42.5653 7.135C45.1 7.27594 47.1585 9.00319 47.7374 11.4749L48.7044 15.6026C48.9688 16.7315 49.4887 17.6319 50.3342 18.4253L53.4254 21.3267C55.2764 23.0638 55.7429 25.7102 54.5978 27.9757L52.6853 31.7592C52.1623 32.794 51.9817 33.8179 52.1193 34.9691L52.6225 39.1787C52.9238 41.6993 51.5801 44.0264 49.2467 45.0257L45.3496 46.6948C44.2837 47.1512 43.4873 47.8195 42.8527 48.7899L40.5323 52.3379C39.1429 54.4624 36.6178 55.3814 34.1879 54.6471L30.1298 53.4207C29.0199 53.0852 27.9803 53.0852 26.8703 53.4207L22.8122 54.6471C20.3823 55.3814 17.8572 54.4624 16.4678 52.3379L14.1474 48.7899C13.5127 47.8195 12.7163 47.1512 11.6505 46.6948L7.75316 45.0255C5.41972 44.0261 4.0761 41.699 4.37735 39.1785L4.88056 34.9689C5.01816 33.8177 4.83758 32.7938 4.31456 31.759L2.40206 27.9755C1.25694 25.7101 1.72351 23.0637 3.57445 21.3264L6.6657 18.4251C7.51113 17.6317 8.03092 16.7313 8.29532 15.6024L9.26232 11.4747C9.84123 9.00308 11.8998 7.27583 14.4344 7.13477L18.6672 6.89932C19.8249 6.83497 20.8019 6.47927 21.7302 5.78448L25.1241 3.24397C27.1562 1.723 29.8434 1.723 31.8756 3.24419ZM26.3348 29.9539L22.6516 26.2707C21.697 25.3161 20.1485 25.3161 19.194 26.2707C18.2394 27.2254 18.2394 28.7737 19.194 29.7284L24.6114 35.1456C25.566 36.1001 27.1145 36.1002 28.069 35.1456C31.3342 31.8802 34.5625 28.5782 37.8128 25.298C38.7605 24.3414 38.7575 22.798 37.8022 21.848C36.8468 20.8978 35.2989 20.9005 34.3501 21.8587L26.3348 29.9539ZM28.4998 10.2927C23.4721 10.2927 18.9203 12.3307 15.6254 15.6255C12.3305 18.9205 10.2926 23.4723 10.2926 28.5C10.2926 33.5277 12.3305 38.0795 15.6254 41.3744C18.9203 44.6693 23.4721 46.7072 28.4998 46.7072C33.5275 46.7072 38.0794 44.6693 41.3743 41.3744C44.6691 38.0795 46.7071 33.5277 46.7071 28.5C46.7071 23.4723 44.6691 18.9204 41.3743 15.6255C38.0794 12.3307 33.5275 10.2927 28.4998 10.2927ZM40.1148 16.885C37.1423 13.9125 33.0358 12.074 28.4998 12.074C23.9639 12.074 19.8573 13.9125 16.8848 16.885C13.9124 19.8575 12.0738 23.964 12.0738 28.5C12.0738 33.0359 13.9124 37.1425 16.8848 40.115C19.8573 43.0874 23.9639 44.926 28.4998 44.926C33.0358 44.926 37.1423 43.0874 40.1148 40.1151C43.0873 37.1426 44.9257 33.036 44.9257 28.5001C44.9258 23.964 43.0873 19.8575 40.1148 16.885Z" fill="#0E2D68"/>
</svg>
