<svg width="50" height="50" viewBox="0 0 50 50" fill="none" xmlns="http://www.w3.org/2000/svg">
<g clip-path="url(#clip0_428_319)">
<path d="M26.5913 15.099H20.4033V23.9395L26.5913 23.94C29.0288 23.94 31.0123 21.957 31.0123 19.5195C31.0123 17.0815 29.0288 15.099 26.5913 15.099Z" fill="#0E2D68"/>
<path d="M25 0C11.193 0 0 11.193 0 25C0 38.807 11.193 50 25 50C38.807 50 50 38.807 50 25C50 11.193 38.807 0 25 0ZM26.591 28.183L20.403 28.1825V30.069H25.707V34.312H20.403V39.144H16.159V34.312H14.745V30.069H16.159V28.1825H14.745V23.939H16.159V10.855H26.5895C31.3685 10.855 35.255 14.7415 35.255 19.519C35.255 24.2965 31.3685 28.183 26.591 28.183Z" fill="#0E2D68"/>
</g>
<defs>
<clipPath id="clip0_428_319">
<rect width="50" height="50" fill="white"/>
</clipPath>
</defs>
</svg>
