<svg width="70" height="70" viewBox="0 0 70 70" fill="none" xmlns="http://www.w3.org/2000/svg">
<path d="M65.4281 34.125L60.5938 23.1875C60.4245 22.7996 60.1463 22.4692 59.793 22.2362C59.4397 22.0032 59.0263 21.8778 58.6031 21.875H46.9L47.6 15.5531C47.6344 15.2462 47.6035 14.9355 47.5093 14.6414C47.415 14.3474 47.2596 14.0766 47.0531 13.8469C46.8486 13.6203 46.5989 13.439 46.3201 13.3146C46.0413 13.1903 45.7396 13.1257 45.4344 13.125H15.3125C14.7323 13.125 14.1759 13.3555 13.7657 13.7657C13.3555 14.1759 13.125 14.7323 13.125 15.3125C13.125 15.8927 13.3555 16.4491 13.7657 16.8593C14.1759 17.2695 14.7323 17.5 15.3125 17.5H26.25C26.8302 17.5 27.3866 17.7305 27.7968 18.1407C28.207 18.5509 28.4375 19.1073 28.4375 19.6875C28.4375 20.2677 28.207 20.8241 27.7968 21.2343C27.3866 21.6445 26.8302 21.875 26.25 21.875H10.9375C10.3573 21.875 9.80094 22.1055 9.3907 22.5157C8.98047 22.9259 8.75 23.4823 8.75 24.0625C8.75 24.6427 8.98047 25.1991 9.3907 25.6093C9.80094 26.0195 10.3573 26.25 10.9375 26.25H32.8125C33.3927 26.25 33.9491 26.4805 34.3593 26.8907C34.7695 27.3009 35 27.8573 35 28.4375C35 29.0177 34.7695 29.5741 34.3593 29.9843C33.9491 30.3945 33.3927 30.625 32.8125 30.625H17.5C16.9198 30.625 16.3634 30.8555 15.9532 31.2657C15.543 31.6759 15.3125 32.2323 15.3125 32.8125C15.3125 33.3927 15.543 33.9491 15.9532 34.3593C16.3634 34.7695 16.9198 35 17.5 35H26.25C26.8302 35 27.3866 35.2305 27.7968 35.6407C28.207 36.0509 28.4375 36.6073 28.4375 37.1875C28.4375 37.7677 28.207 38.3241 27.7968 38.7343C27.3866 39.1445 26.8302 39.375 26.25 39.375H8.75C8.16984 39.375 7.61344 39.6055 7.2032 40.0157C6.79297 40.4259 6.5625 40.9823 6.5625 41.5625C6.5625 42.1427 6.79297 42.6991 7.2032 43.1093C7.61344 43.5195 8.16984 43.75 8.75 43.75H13.125C13.7052 43.75 14.2616 43.9805 14.6718 44.3907C15.082 44.8009 15.3125 45.3573 15.3125 45.9375C15.3125 46.5177 15.082 47.0741 14.6718 47.4843C14.2616 47.8945 13.7052 48.125 13.125 48.125H10.9375C10.3573 48.125 9.80094 48.3555 9.3907 48.7657C8.98047 49.1759 8.75 49.7323 8.75 50.3125C8.75 50.8927 8.98047 51.4491 9.3907 51.8593C9.80094 52.2695 10.3573 52.5 10.9375 52.5H17.1719C17.4081 53.4226 17.8577 54.2767 18.4844 54.9937C19.0155 55.5875 19.6662 56.0621 20.3939 56.3864C21.1216 56.7106 21.9096 56.8772 22.7063 56.875C24.0543 56.8365 25.3609 56.4007 26.4623 55.6224C27.5636 54.8441 28.4106 53.7579 28.8969 52.5H45.6094C45.8456 53.4226 46.2952 54.2767 46.9219 54.9937C47.453 55.5875 48.1037 56.0621 48.8314 56.3864C49.5591 56.7106 50.3471 56.8772 51.1437 56.875C52.4918 56.8365 53.7984 56.4007 54.8998 55.6224C56.0011 54.8441 56.848 53.7579 57.3344 52.5H61.7094C62.2502 52.5033 62.773 52.3061 63.177 51.9466C63.5809 51.5871 63.8374 51.0906 63.8969 50.5531L65.5812 35.2406C65.6412 34.8618 65.5879 34.4737 65.4281 34.125ZM22.7063 52.5C22.5249 52.5078 22.344 52.4745 22.1773 52.4025C22.0107 52.3306 21.8624 52.2218 21.7437 52.0844C21.572 51.8719 21.4464 51.6261 21.3749 51.3625C21.3033 51.0989 21.2874 50.8232 21.3281 50.5531C21.384 49.9389 21.6492 49.3626 22.0792 48.9206C22.5093 48.4785 23.0782 48.1977 23.6906 48.125C23.872 48.1172 24.0528 48.1505 24.2195 48.2225C24.3862 48.2944 24.5345 48.4032 24.6531 48.5406C24.8248 48.7531 24.9505 48.9989 25.022 49.2625C25.0936 49.5261 25.1095 49.8018 25.0688 50.0719C25.0129 50.6861 24.7477 51.2624 24.3176 51.7044C23.8876 52.1465 23.3187 52.4273 22.7063 52.5ZM51.1437 52.5C50.9624 52.5078 50.7815 52.4745 50.6148 52.4025C50.4482 52.3306 50.2999 52.2218 50.1813 52.0844C50.0095 51.8719 49.8839 51.6261 49.8124 51.3625C49.7408 51.0989 49.7249 50.8232 49.7656 50.5531C49.8215 49.9389 50.0867 49.3626 50.5167 48.9206C50.9468 48.4785 51.5157 48.1977 52.1281 48.125C52.3095 48.1172 52.4903 48.1505 52.657 48.2225C52.8237 48.2944 52.972 48.4032 53.0906 48.5406C53.2623 48.7531 53.388 48.9989 53.4595 49.2625C53.5311 49.5261 53.547 49.8018 53.5062 50.0719C53.4504 50.6861 53.1852 51.2624 52.7551 51.7044C52.3251 52.1465 51.7562 52.4273 51.1437 52.5ZM60.9875 37.1875H51.3187C51.0135 37.1868 50.7118 37.1222 50.433 36.9979C50.1542 36.8735 49.9045 36.6922 49.7 36.4656C49.4936 36.2359 49.3381 35.9651 49.2439 35.6711C49.1496 35.377 49.1187 35.0663 49.1531 34.7594L49.875 28.1969C49.9395 27.6633 50.1981 27.1722 50.6016 26.8171C51.005 26.4621 51.5251 26.268 52.0625 26.2719H57.1594L61.25 35.35L60.9875 37.1875Z" fill="#0E2D68"/>
<path d="M8.75 35C9.33016 35 9.88656 34.7695 10.2968 34.3593C10.707 33.9491 10.9375 33.3927 10.9375 32.8125C10.9375 32.2323 10.707 31.6759 10.2968 31.2657C9.88656 30.8555 9.33016 30.625 8.75 30.625H6.5625C5.98234 30.625 5.42594 30.8555 5.0157 31.2657C4.60547 31.6759 4.375 32.2323 4.375 32.8125C4.375 33.3927 4.60547 33.9491 5.0157 34.3593C5.42594 34.7695 5.98234 35 6.5625 35H8.75Z" fill="#0E2D68"/>
</svg>
