<svg width="59" height="59" viewBox="0 0 59 59" fill="none" xmlns="http://www.w3.org/2000/svg">
<path d="M29.7608 7.48315C24.1902 7.48315 19.657 12.1982 19.657 17.995C19.657 23.686 23.9272 28.2954 29.5076 28.4822C29.6662 28.4663 29.8259 28.4663 29.9845 28.4822C30.0188 28.4851 30.0533 28.4867 30.0878 28.4872H30.1222C35.5625 28.2979 39.8424 23.6909 39.8645 17.9974C39.8645 12.2007 35.3338 7.48561 29.7608 7.48561V7.48315ZM40.5652 34.3896C34.6283 30.267 24.9375 30.2621 18.9613 34.3896H18.9564C16.267 36.2629 14.7871 38.8023 14.792 41.5384C14.7969 44.2672 16.2768 46.7944 18.9589 48.6504C21.9384 50.7252 25.8496 51.7627 29.7633 51.7627C33.6769 51.7627 37.5881 50.7252 40.5676 48.6504C43.257 46.7747 44.737 44.2377 44.732 41.5016C44.7271 38.7728 43.2472 36.2457 40.5652 34.3896ZM53.142 19.3004C53.4813 23.5951 50.5509 27.3489 46.4775 27.8701L46.4357 27.875L46.3742 27.8799C46.2502 27.8692 46.1253 27.8808 46.0055 27.9144C44.0399 28.0266 42.108 27.3688 40.6193 26.0804C42.8072 24.0523 44.0585 20.9892 43.8003 17.6779C43.66 15.9591 43.094 14.3024 42.1533 12.8571C42.967 12.4392 43.8938 12.1614 44.8599 12.0729C49.0685 11.6894 52.7733 14.9245 53.142 19.3028V19.3004Z" fill="#0E2D68"/>
<path d="M57.4122 39.7783C57.2327 41.917 55.9224 43.7755 53.7026 45.0416C51.5712 46.2707 48.8965 46.8263 46.2317 46.7624C47.7632 45.3243 48.6605 43.5395 48.8203 41.6196C49.0293 38.8834 47.778 36.2358 45.2631 34.1389C43.7976 32.9482 42.1444 32.0094 40.371 31.3609C45.0812 29.9449 50.9812 30.9037 54.6343 33.9496C56.5886 35.5942 57.5892 37.6616 57.4122 39.7783ZM6.35998 19.3004C6.02073 23.5951 8.95107 27.3489 13.0245 27.8701L13.0663 27.875L13.1278 27.8799C13.2518 27.8691 13.3767 27.8808 13.4965 27.9144C15.4621 28.0265 17.394 27.3687 18.8827 26.0804C16.6948 24.0523 15.4435 20.9892 15.7016 17.6779C15.8516 15.8833 16.4465 14.2386 17.3487 12.8571C16.5047 12.4257 15.586 12.1595 14.6421 12.0729C10.4334 11.6894 6.72873 14.9245 6.35998 19.3028V19.3004ZM2.09232 39.7783C2.27177 41.917 3.58207 43.7755 5.80194 45.0416C7.93332 46.2707 10.608 46.8263 13.2728 46.7624C11.7413 45.3243 10.844 43.5395 10.6842 41.6196C10.4752 38.8834 11.7265 36.2358 14.2414 34.1389C15.7069 32.9482 17.3601 32.0094 19.1335 31.3609C14.4233 29.9449 8.52332 30.9037 4.87023 33.9496C2.91586 35.5942 1.91532 37.6616 2.09232 39.7783Z" fill="#0E2D68"/>
</svg>
