<svg width="50" height="50" viewBox="0 0 50 50" fill="none" xmlns="http://www.w3.org/2000/svg">
<g clip-path="url(#clip0_428_491)">
<path d="M46.6836 38.0449L25.7168 49.8125C25.4979 49.9354 25.2511 50 25 50C24.7489 50 24.5021 49.9354 24.2832 49.8125L3.31641 38.0449C2.31934 37.4863 2.32129 36.0479 3.31641 35.4902L8.53125 32.5635L22.8496 40.5996C23.5064 40.9683 24.2469 41.1619 25 41.1619C25.7531 41.1619 26.4936 40.9683 27.1504 40.5996L41.4688 32.5635L46.6836 35.4902C47.6807 36.0488 47.6787 37.4873 46.6836 38.0449Z" fill="#0E2D68"/>
<path d="M46.6836 23.7227L41.4688 20.7959L27.1504 28.832C26.4936 29.2006 25.7531 29.3942 25 29.3942C24.2469 29.3942 23.5064 29.2006 22.8496 28.832L8.53125 20.7959L3.31641 23.7227C2.32129 24.2803 2.31934 25.7187 3.31641 26.2773L24.2832 38.0449C24.5021 38.1679 24.7489 38.2324 25 38.2324C25.2511 38.2324 25.4979 38.1679 25.7168 38.0449L46.6836 26.2773C47.6787 25.7197 47.6807 24.2812 46.6836 23.7227ZM12.0508 28.2051C11.2412 28.2051 10.5859 27.5488 10.5859 26.7402C10.5859 25.9307 11.2412 25.2754 12.0508 25.2754C12.8594 25.2754 13.5156 25.9307 13.5156 26.7402C13.5156 27.5488 12.8594 28.2051 12.0508 28.2051ZM18.2881 31.833C17.4785 31.833 16.8232 31.1768 16.8232 30.3682C16.8232 29.5586 17.4785 28.9033 18.2881 28.9033C19.0967 28.9033 19.7529 29.5586 19.7529 30.3682C19.7529 31.1768 19.0967 31.833 18.2881 31.833ZM25 35.2314C24.1914 35.2314 23.5352 34.5762 23.5352 33.7666C23.5352 32.958 24.1914 32.3018 25 32.3018C25.8086 32.3018 26.4648 32.958 26.4648 33.7666C26.4648 34.5762 25.8086 35.2314 25 35.2314ZM31.7119 31.833C30.9033 31.833 30.2471 31.1768 30.2471 30.3682C30.2471 29.5586 30.9033 28.9033 31.7119 28.9033C32.5215 28.9033 33.1768 29.5586 33.1768 30.3682C33.1768 31.1768 32.5215 31.833 31.7119 31.833ZM37.9492 28.2051C37.1406 28.2051 36.4844 27.5488 36.4844 26.7402C36.4844 25.9307 37.1406 25.2754 37.9492 25.2754C38.7588 25.2754 39.4141 25.9307 39.4141 26.7402C39.4141 27.5488 38.7588 28.2051 37.9492 28.2051Z" fill="#0E2D68"/>
<path d="M46.6836 14.5098L25.7168 26.2773C25.4979 26.4003 25.2511 26.4648 25 26.4648C24.7489 26.4648 24.5021 26.4003 24.2832 26.2773L3.31641 14.5098C2.31934 13.9512 2.32129 12.5127 3.31641 11.9551L24.2832 0.187501C24.5021 0.0645686 24.7489 0 25 0C25.2511 0 25.4979 0.0645686 25.7168 0.187501L46.6836 11.9551C47.6807 12.5137 47.6787 13.9522 46.6836 14.5098Z" fill="#0E2D68"/>
</g>
<defs>
<clipPath id="clip0_428_491">
<rect width="50" height="50" fill="white"/>
</clipPath>
</defs>
</svg>
