<svg width="29" height="37" viewBox="0 0 29 37" fill="none" xmlns="http://www.w3.org/2000/svg">
<path d="M22.0596 6.99126C18.6854 2.96982 15.3548 0.356055 15.2148 0.246938C14.4545 -0.345837 13.34 0.195848 13.34 1.15745V6.24189C13.34 8.86736 9.85413 9.79132 8.54775 7.50939C8.14153 6.80164 7.15379 6.72707 6.64245 7.34969C3.13193 11.6199 0 17.004 0 22.5474C0 30.5165 6.5047 37 14.5 37C22.4953 37 29 30.5165 29 22.5474C29 16.8605 25.7057 11.3373 22.0596 6.99126ZM8.12 18.5006C8.12 17.2252 9.1611 16.1882 10.44 16.1882C11.7189 16.1882 12.76 17.2252 12.76 18.5006C12.76 19.7761 11.7189 20.813 10.44 20.813C9.1611 20.813 8.12 19.7761 8.12 18.5006ZM11.3557 28.4599C10.9645 28.9625 10.2354 29.0561 9.72805 28.663C9.222 28.2706 9.13137 27.5444 9.52432 27.0407L17.6443 16.6348C18.038 16.1304 18.7666 16.0401 19.2719 16.4317C19.778 16.8241 19.8686 17.5504 19.4757 18.054L11.3557 28.4599ZM18.56 28.9065C17.2811 28.9065 16.24 27.8695 16.24 26.5941C16.24 25.3187 17.2811 24.2817 18.56 24.2817C19.8389 24.2817 20.88 25.3187 20.88 26.5941C20.88 27.8695 19.8389 28.9065 18.56 28.9065Z" fill="#E51A4B"/>
</svg>
