<svg width="1952" height="653" viewBox="0 0 1952 653" fill="none" xmlns="http://www.w3.org/2000/svg">
<g clip-path="url(#clip0_60_6539)">
<rect width="1952" height="653" fill="url(#paint0_linear_60_6539)"/>
<g style="mix-blend-mode:screen">
<mask id="path-1-outside-1_60_6539" maskUnits="userSpaceOnUse" x="-1492.75" y="-358.091" width="3299.55" height="2022.85" fill="black">
<rect fill="white" x="-1492.75" y="-358.091" width="3299.55" height="2022.85"/>
<path d="M1479.45 -226.077C1492.92 -210.218 1504.98 -193.489 1501.77 -186.27C1499.79 -181.813 1493.71 -181.453 1483.53 -186.113C1477.99 -188.715 1472.27 -192.316 1466.23 -196.351C1450.59 -207.636 1434.74 -219.831 1420 -226.52C1385.05 -242.886 1352.72 -232.009 1339.03 -201.213C1324.66 -168.903 1342.04 -119.682 1361.54 -88.9841C1366.47 -81.231 1372.22 -73.6957 1378.17 -66.4273C1384.86 -58.2297 1391.8 -50.3882 1398.09 -43.1621C1411.56 -27.3029 1423.62 -10.5744 1420.41 -3.35468C1418.42 1.10195 1412.35 1.46218 1402.16 -3.19817C1396.62 -5.79967 1391 -9.54923 1384.87 -13.4363L1139.68 -169.234C1139.68 -169.234 1132.82 -173.841 1125.31 -176.263C1112.37 -180.435 1098.25 -180.325 1086.9 -176.291C1073.43 -171.512 1062.54 -161.291 1055.93 -146.48C1049.77 -132.62 1049.46 -115.649 1052.64 -98.3415C1056.88 -75.3194 1067.31 -51.7774 1078.46 -34.2207C1083.38 -26.4677 1089.13 -18.9324 1095.08 -11.6639C1101.78 -3.46638 1108.71 4.3752 1115 11.6013C1128.47 27.4605 1140.53 44.189 1137.32 51.4087C1135.34 55.8653 1129.27 56.2255 1119.08 51.5651C1113.54 48.9636 1107.82 45.3625 1101.79 41.3271C1086.15 30.0425 1070.29 17.8474 1055.55 11.1587C1020.6 -5.20727 988.275 5.66973 974.582 36.4651C960.215 68.7757 977.59 117.996 997.098 148.694C1002.02 156.447 1007.77 163.983 1013.72 171.251C1020.42 179.449 1027.35 187.29 1033.68 194.502C1047.15 210.361 1059.2 227.089 1055.99 234.309C1054.01 238.766 1047.94 239.126 1037.75 234.465C1032.21 231.864 1026.5 228.263 1020.46 224.227C1004.82 212.943 988.965 200.748 974.226 194.059C939.272 177.693 906.947 188.57 893.254 219.365C878.887 251.676 896.262 300.896 915.77 331.594C920.694 339.348 926.443 346.883 932.391 354.151C939.088 362.349 946.024 370.19 952.349 377.402C965.819 393.261 977.876 409.99 974.666 417.209C972.684 421.666 966.611 422.026 956.424 417.366C950.884 414.764 945.261 411.015 939.132 407.128L693.941 251.33C693.941 251.33 687.079 246.723 679.569 244.301C666.628 240.128 652.511 240.239 641.158 244.273C627.692 249.052 616.802 259.273 610.189 274.084C604.026 287.944 603.717 304.915 606.903 322.222C611.139 345.244 621.57 368.786 632.719 386.343C637.642 394.096 643.411 401.587 649.36 408.855C656.057 417.053 662.993 424.894 669.318 432.106C682.787 447.965 694.845 464.694 691.634 471.913C689.653 476.37 683.579 476.73 673.392 472.07C667.853 469.468 662.229 465.719 656.1 461.832L410.91 306.034C410.91 306.034 404.048 301.427 396.538 299.005C383.596 294.833 369.479 294.943 358.126 298.977C344.66 303.756 333.77 313.978 327.158 328.788C320.995 342.648 320.685 359.619 323.871 376.926C328.107 399.949 338.539 423.491 349.687 441.047C354.611 448.8 366.403 463.635 366.403 463.635C373.086 471.802 379.961 479.599 386.286 486.81C399.756 502.669 411.813 519.398 408.603 526.617C406.621 531.074 400.547 531.434 390.361 526.774C384.821 524.172 379.198 520.423 373.068 516.536L127.878 360.739C127.878 360.739 121.016 356.131 113.506 353.71C100.565 349.537 86.4473 349.647 75.0949 353.681C61.6289 358.461 50.7385 368.682 44.1258 383.492C37.9629 397.353 37.6535 414.323 40.8394 431.631C45.0755 454.653 55.507 478.195 66.6558 495.751C71.579 503.505 77.3282 511.04 83.277 518.308C89.9737 526.506 96.9097 534.347 103.201 541.573C116.671 557.433 128.728 574.161 125.518 581.381C123.536 585.838 117.462 586.198 107.276 581.537C101.736 578.936 96.0197 575.335 89.9835 571.299C74.3447 560.015 58.4897 547.82 43.7505 541.131C8.79643 524.765 -23.5282 535.642 -37.2215 566.437C-51.5886 598.748 -34.2138 647.968 -14.7053 678.666C-9.78206 686.419 -4.03297 693.955 1.91579 701.223C8.61251 709.421 15.5486 717.262 21.8402 724.488C35.3099 740.348 47.3669 757.076 44.1566 764.296C42.175 768.752 36.1014 769.113 25.9147 764.452C20.375 761.851 14.6586 758.25 8.62242 754.214C-7.01642 742.93 -22.8714 730.734 -37.6106 724.046C-72.5646 707.68 -104.889 718.557 -118.583 749.352C-132.95 781.663 -115.575 830.883 -96.0663 861.581C-91.1431 869.334 -85.394 876.87 -79.4453 884.138C-72.7486 892.336 -65.8126 900.177 -59.521 907.403C-46.0512 923.263 -33.9941 939.991 -37.2044 947.211C-39.1861 951.667 -45.2598 952.028 -55.4465 947.367C-60.9862 944.766 -66.6095 941.016 -72.7386 937.129L-317.929 781.332C-317.929 781.332 -324.791 776.724 -332.301 774.303C-345.242 770.13 -359.36 770.241 -370.712 774.274C-384.178 779.054 -395.069 789.275 -401.681 804.086C-407.844 817.946 -408.154 834.916 -404.968 852.224C-400.732 875.246 -390.3 898.788 -379.151 916.345C-374.228 924.098 -362.436 938.932 -362.436 938.932C-355.753 947.1 -348.878 954.896 -342.552 962.107C-329.083 977.967 -317.026 994.695 -320.236 1001.91C-322.218 1006.37 -328.291 1006.73 -338.478 1002.07C-344.018 999.47 -349.641 995.72 -355.77 991.833L-600.96 836.036C-600.96 836.036 -607.822 831.428 -615.332 829.007C-628.274 824.834 -642.391 824.945 -653.744 828.979C-667.21 833.758 -678.1 843.979 -684.713 858.79C-690.876 872.65 -691.185 889.62 -687.999 906.928C-683.763 929.95 -673.332 953.492 -662.183 971.049C-657.26 978.802 -651.51 986.337 -645.562 993.606C-638.865 1001.8 -631.929 1009.64 -625.637 1016.87C-612.168 1032.73 -600.111 1049.46 -603.321 1056.68C-605.302 1061.13 -611.376 1061.5 -621.563 1056.83C-627.103 1054.23 -632.819 1050.63 -638.855 1046.6C-654.494 1035.31 -670.349 1023.12 -685.088 1016.43C-720.042 1000.06 -752.367 1010.94 -766.06 1041.73C-780.427 1074.05 -763.052 1123.27 -743.544 1153.96C-738.621 1161.72 -732.872 1169.25 -726.923 1176.52C-720.226 1184.72 -713.29 1192.56 -706.998 1199.79C-693.529 1215.64 -681.472 1232.37 -684.682 1239.59C-686.664 1244.05 -692.737 1244.41 -702.924 1239.75C-708.464 1237.15 -714.087 1233.4 -720.216 1229.51L-965.406 1073.71C-965.406 1073.71 -972.268 1069.11 -979.778 1066.69C-992.72 1062.51 -1006.84 1062.62 -1018.19 1066.66C-1031.66 1071.44 -1042.55 1081.66 -1049.16 1096.47C-1055.32 1110.33 -1055.63 1127.3 -1052.45 1144.61C-1048.21 1167.63 -1037.78 1191.17 -1026.63 1208.73C-1021.71 1216.48 -1015.96 1224.02 -1010.01 1231.28C-1003.31 1239.48 -996.375 1247.32 -990.083 1254.55C-976.614 1270.41 -964.557 1287.14 -967.767 1294.36C-969.748 1298.81 -975.822 1299.17 -986.009 1294.51C-991.549 1291.91 -997.265 1288.31 -1003.3 1284.27C-1018.94 1272.99 -1034.79 1260.8 -1049.53 1254.11C-1084.49 1237.74 -1116.81 1248.62 -1130.51 1279.41C-1144.87 1311.72 -1127.5 1360.94 -1107.99 1391.64C-1103.07 1399.4 -1097.32 1406.93 -1091.37 1414.2C-1084.67 1422.4 -1077.74 1430.24 -1071.44 1437.46C-1057.97 1453.32 -1045.92 1470.05 -1049.13 1477.27C-1051.11 1481.73 -1057.18 1482.09 -1067.37 1477.43C-1072.91 1474.83 -1078.63 1471.23 -1084.66 1467.19C-1100.3 1455.91 -1116.16 1443.71 -1130.9 1437.02C-1165.85 1420.66 -1198.17 1431.53 -1211.87 1462.33C-1226.09 1494.25 -1208.73 1543.44 -1189.21 1574.17C-1184.28 1581.92 -1178.53 1589.46 -1172.59 1596.73L-1119.59 1613.81C-1126.29 1605.62 -1133.22 1597.78 -1139.51 1590.55C-1152.98 1574.69 -1165.04 1557.96 -1161.83 1550.74C-1159.85 1546.29 -1153.78 1545.93 -1143.59 1550.59C-1138.05 1553.19 -1132.33 1556.79 -1126.3 1560.82C-1110.66 1572.11 -1094.8 1584.3 -1080.06 1590.99C-1045.11 1607.36 -1012.79 1596.48 -999.092 1565.69C-984.725 1533.38 -1002.1 1484.15 -1021.61 1453.46C-1026.53 1445.7 -1032.28 1438.17 -1038.23 1430.9C-1044.93 1422.7 -1051.86 1414.86 -1058.15 1407.63C-1071.62 1391.78 -1083.68 1375.05 -1080.47 1367.83C-1078.49 1363.37 -1072.41 1363.01 -1062.23 1367.67C-1056.69 1370.27 -1050.97 1373.87 -1044.94 1377.91C-1029.3 1389.19 -1013.44 1401.39 -998.703 1408.08C-963.749 1424.44 -931.424 1413.57 -917.731 1382.77C-903.364 1350.46 -920.739 1301.24 -940.247 1270.54C-945.17 1262.79 -950.919 1255.25 -956.868 1247.98C-963.565 1239.79 -970.501 1231.95 -976.792 1224.72C-990.262 1208.86 -1002.32 1192.13 -999.109 1184.91C-997.127 1180.46 -991.054 1180.1 -980.867 1184.76C-975.327 1187.36 -969.704 1191.11 -963.575 1194.99L-718.385 1350.79C-718.385 1350.79 -711.523 1355.4 -704.013 1357.82C-691.071 1361.99 -676.954 1361.88 -665.601 1357.85C-652.135 1353.07 -641.245 1342.85 -634.632 1328.04C-628.469 1314.18 -628.16 1297.21 -631.346 1279.9C-635.582 1256.88 -646.013 1233.33 -657.162 1215.78C-662.085 1208.03 -667.834 1200.49 -673.783 1193.22C-680.48 1185.02 -687.416 1177.18 -693.708 1169.96C-707.177 1154.1 -719.234 1137.37 -716.024 1130.15C-714.042 1125.69 -707.969 1125.33 -697.782 1129.99C-692.242 1132.59 -686.526 1136.2 -680.49 1140.23C-664.851 1151.52 -648.996 1163.71 -634.257 1170.4C-599.303 1186.76 -566.978 1175.89 -553.285 1145.09C-538.918 1112.78 -556.293 1063.56 -575.801 1032.86C-580.724 1025.11 -586.473 1017.57 -592.422 1010.31C-599.119 1002.11 -606.055 994.267 -612.346 987.041C-625.816 971.182 -637.873 954.454 -634.663 947.234C-632.681 942.777 -626.608 942.417 -616.421 947.077C-610.881 949.679 -605.258 953.428 -599.129 957.316L-353.939 1113.11C-353.939 1113.11 -347.077 1117.72 -339.567 1120.14C-326.625 1124.31 -312.508 1124.2 -301.155 1120.17C-287.689 1115.39 -276.799 1105.17 -270.186 1090.36C-264.023 1076.5 -263.714 1059.53 -266.9 1042.22C-271.136 1019.2 -281.567 995.657 -292.716 978.1C-297.639 970.347 -303.389 962.812 -309.337 955.543L-309.432 955.513C-316.115 947.345 -322.99 939.549 -329.315 932.337C-342.785 916.478 -354.842 899.75 -351.632 892.53C-349.65 888.073 -343.576 887.713 -333.39 892.373C-327.85 894.975 -322.226 898.724 -316.097 902.611L-70.9071 1058.41C-70.9071 1058.41 -64.0451 1063.02 -56.5352 1065.44C-43.5935 1069.61 -29.4762 1069.5 -18.1238 1065.47C-4.6578 1060.69 6.23258 1050.47 12.8452 1035.65C19.0082 1021.79 19.3177 1004.82 16.1318 987.517C11.8956 964.495 1.46407 940.953 -9.68473 923.396C-14.6079 915.643 -20.357 908.107 -26.3058 900.839C-33.0025 892.641 -39.9385 884.8 -46.2301 877.574C-59.6998 861.715 -71.7569 844.986 -68.5466 837.766C-66.565 833.31 -60.4914 832.95 -50.3047 837.61C-44.765 840.211 -39.0486 843.813 -33.0124 847.848C-17.3736 859.133 -1.51848 871.328 13.2207 878.016C48.1748 894.382 80.4994 883.505 94.1927 852.71C108.56 820.4 91.1849 771.179 71.6764 740.481C66.7532 732.728 61.0041 725.193 55.0554 717.924C48.3587 709.727 41.4226 701.885 35.131 694.659C21.6613 678.8 9.60414 662.071 12.8144 654.851C14.7961 650.395 20.8698 650.035 31.0565 654.695C36.5962 657.297 42.3125 660.898 48.3488 664.933C63.9876 676.218 79.8426 688.413 94.5818 695.102C129.536 711.468 161.86 700.591 175.554 669.795C189.921 637.485 172.546 588.264 153.038 557.566C148.114 549.813 142.365 542.278 136.416 535.009C129.72 526.812 122.784 518.97 116.492 511.744C103.022 495.885 90.9653 479.156 94.1756 471.937C96.1573 467.48 102.231 467.12 112.418 471.78C117.957 474.382 123.581 478.131 129.71 482.018L374.9 637.816C374.9 637.816 381.762 642.423 389.272 644.844C402.214 649.017 416.331 648.907 427.683 644.873C441.149 640.094 452.04 629.872 458.652 615.062C464.815 601.202 465.125 584.231 461.939 566.923C457.703 543.901 447.271 520.359 436.123 502.803C431.199 495.05 425.45 487.514 419.501 480.246L419.407 480.215C412.724 472.048 405.849 464.251 399.524 457.04C386.054 441.181 373.997 424.452 377.207 417.232C379.189 412.776 385.262 412.416 395.449 417.076C400.989 419.677 406.612 423.427 412.741 427.314L657.932 583.111C657.932 583.111 664.794 587.719 672.304 590.14C685.245 594.313 699.363 594.203 710.715 590.169C724.181 585.389 735.071 575.168 741.684 560.358C747.847 546.497 748.156 529.527 744.97 512.219C740.734 489.197 730.303 465.655 719.154 448.098C714.231 440.345 708.482 432.81 702.533 425.542L702.438 425.511C695.755 417.344 688.88 409.547 682.555 402.336C669.086 386.477 657.028 369.748 660.239 362.528C662.22 358.072 668.294 357.711 678.481 362.372C684.021 364.973 689.644 368.723 695.773 372.61L940.963 528.407C940.963 528.407 947.825 533.015 955.335 535.436C968.277 539.609 982.394 539.498 993.747 535.464C1007.21 530.685 1018.1 520.464 1024.72 505.653C1030.88 491.793 1031.19 474.823 1028 457.515C1023.77 434.493 1013.33 410.951 1002.19 393.394C997.262 385.641 991.513 378.106 985.564 370.838C978.868 362.64 971.932 354.798 965.64 347.572C952.17 331.713 940.113 314.985 943.324 307.765C945.305 303.308 951.379 302.948 961.566 307.608C967.105 310.21 972.822 313.811 978.858 317.847C994.497 329.131 1010.35 341.326 1025.09 348.015C1060.05 364.381 1092.37 353.504 1106.06 322.709C1120.43 290.398 1103.06 241.178 1083.55 210.479C1078.62 202.726 1072.87 195.191 1066.93 187.923C1060.23 179.725 1053.29 171.884 1047 164.657C1033.53 148.798 1021.47 132.07 1024.68 124.85C1026.67 120.393 1032.74 120.033 1042.93 124.693C1048.47 127.295 1054.18 130.896 1060.22 134.932C1075.86 146.216 1091.71 158.411 1106.45 165.1C1141.41 181.466 1173.73 170.589 1187.42 139.794C1201.79 107.483 1184.42 58.2625 1164.91 27.5644C1159.98 19.8114 1154.24 12.2761 1148.29 5.00763C1141.59 -3.18989 1134.65 -11.0314 1128.36 -18.2575C1114.89 -34.1167 1102.84 -50.8452 1106.05 -58.065C1108.03 -62.5216 1114.1 -62.8818 1124.29 -58.2214C1129.83 -55.6199 1135.45 -51.8704 1141.58 -47.9833L1386.77 107.814C1386.77 107.814 1393.63 112.421 1401.14 114.843C1414.08 119.016 1428.2 118.905 1439.55 114.871C1453.02 110.092 1463.91 99.8709 1470.52 85.0602C1476.69 71.2 1477 54.2296 1473.81 36.9219C1469.57 13.8998 1459.14 -9.64226 1447.99 -27.1989C1443.07 -34.952 1437.32 -42.4873 1431.37 -49.7557C1424.67 -57.9533 1417.74 -65.7948 1411.45 -73.0209C1397.98 -88.88 1385.92 -105.609 1389.13 -112.828C1391.11 -117.285 1397.19 -117.645 1407.37 -112.985C1412.91 -110.383 1418.63 -106.782 1424.67 -102.747C1440.3 -91.4621 1456.16 -79.267 1470.9 -72.5783C1505.85 -56.2123 1538.18 -67.0893 1551.87 -97.8846C1566.24 -130.195 1548.86 -179.416 1529.35 -210.114C1524.43 -217.867 1518.68 -225.402 1512.73 -232.671L1459.74 -249.758C1466.43 -241.56 1473.37 -233.719 1479.66 -226.493L1479.45 -226.077Z"/>
</mask>
<path d="M1479.45 -226.077C1492.92 -210.218 1504.98 -193.489 1501.77 -186.27C1499.79 -181.813 1493.71 -181.453 1483.53 -186.113C1477.99 -188.715 1472.27 -192.316 1466.23 -196.351C1450.59 -207.636 1434.74 -219.831 1420 -226.52C1385.05 -242.886 1352.72 -232.009 1339.03 -201.213C1324.66 -168.903 1342.04 -119.682 1361.54 -88.9841C1366.47 -81.231 1372.22 -73.6957 1378.17 -66.4273C1384.86 -58.2297 1391.8 -50.3882 1398.09 -43.1621C1411.56 -27.3029 1423.62 -10.5744 1420.41 -3.35468C1418.42 1.10195 1412.35 1.46218 1402.16 -3.19817C1396.62 -5.79967 1391 -9.54923 1384.87 -13.4363L1139.68 -169.234C1139.68 -169.234 1132.82 -173.841 1125.31 -176.263C1112.37 -180.435 1098.25 -180.325 1086.9 -176.291C1073.43 -171.512 1062.54 -161.291 1055.93 -146.48C1049.77 -132.62 1049.46 -115.649 1052.64 -98.3415C1056.88 -75.3194 1067.31 -51.7774 1078.46 -34.2207C1083.38 -26.4677 1089.13 -18.9324 1095.08 -11.6639C1101.78 -3.46638 1108.71 4.3752 1115 11.6013C1128.47 27.4605 1140.53 44.189 1137.32 51.4087C1135.34 55.8653 1129.27 56.2255 1119.08 51.5651C1113.54 48.9636 1107.82 45.3625 1101.79 41.3271C1086.15 30.0425 1070.29 17.8474 1055.55 11.1587C1020.6 -5.20727 988.275 5.66973 974.582 36.4651C960.215 68.7757 977.59 117.996 997.098 148.694C1002.02 156.447 1007.77 163.983 1013.72 171.251C1020.42 179.449 1027.35 187.29 1033.68 194.502C1047.15 210.361 1059.2 227.089 1055.99 234.309C1054.01 238.766 1047.94 239.126 1037.75 234.465C1032.21 231.864 1026.5 228.263 1020.46 224.227C1004.82 212.943 988.965 200.748 974.226 194.059C939.272 177.693 906.947 188.57 893.254 219.365C878.887 251.676 896.262 300.896 915.77 331.594C920.694 339.348 926.443 346.883 932.391 354.151C939.088 362.349 946.024 370.19 952.349 377.402C965.819 393.261 977.876 409.99 974.666 417.209C972.684 421.666 966.611 422.026 956.424 417.366C950.884 414.764 945.261 411.015 939.132 407.128L693.941 251.33C693.941 251.33 687.079 246.723 679.569 244.301C666.628 240.128 652.511 240.239 641.158 244.273C627.692 249.052 616.802 259.273 610.189 274.084C604.026 287.944 603.717 304.915 606.903 322.222C611.139 345.244 621.57 368.786 632.719 386.343C637.642 394.096 643.411 401.587 649.36 408.855C656.057 417.053 662.993 424.894 669.318 432.106C682.787 447.965 694.845 464.694 691.634 471.913C689.653 476.37 683.579 476.73 673.392 472.07C667.853 469.468 662.229 465.719 656.1 461.832L410.91 306.034C410.91 306.034 404.048 301.427 396.538 299.005C383.596 294.833 369.479 294.943 358.126 298.977C344.66 303.756 333.77 313.978 327.158 328.788C320.995 342.648 320.685 359.619 323.871 376.926C328.107 399.949 338.539 423.491 349.687 441.047C354.611 448.8 366.403 463.635 366.403 463.635C373.086 471.802 379.961 479.599 386.286 486.81C399.756 502.669 411.813 519.398 408.603 526.617C406.621 531.074 400.547 531.434 390.361 526.774C384.821 524.172 379.198 520.423 373.068 516.536L127.878 360.739C127.878 360.739 121.016 356.131 113.506 353.71C100.565 349.537 86.4473 349.647 75.0949 353.681C61.6289 358.461 50.7385 368.682 44.1258 383.492C37.9629 397.353 37.6535 414.323 40.8394 431.631C45.0755 454.653 55.507 478.195 66.6558 495.751C71.579 503.505 77.3282 511.04 83.277 518.308C89.9737 526.506 96.9097 534.347 103.201 541.573C116.671 557.433 128.728 574.161 125.518 581.381C123.536 585.838 117.462 586.198 107.276 581.537C101.736 578.936 96.0197 575.335 89.9835 571.299C74.3447 560.015 58.4897 547.82 43.7505 541.131C8.79643 524.765 -23.5282 535.642 -37.2215 566.437C-51.5886 598.748 -34.2138 647.968 -14.7053 678.666C-9.78206 686.419 -4.03297 693.955 1.91579 701.223C8.61251 709.421 15.5486 717.262 21.8402 724.488C35.3099 740.348 47.3669 757.076 44.1566 764.296C42.175 768.752 36.1014 769.113 25.9147 764.452C20.375 761.851 14.6586 758.25 8.62242 754.214C-7.01642 742.93 -22.8714 730.734 -37.6106 724.046C-72.5646 707.68 -104.889 718.557 -118.583 749.352C-132.95 781.663 -115.575 830.883 -96.0663 861.581C-91.1431 869.334 -85.394 876.87 -79.4453 884.138C-72.7486 892.336 -65.8126 900.177 -59.521 907.403C-46.0512 923.263 -33.9941 939.991 -37.2044 947.211C-39.1861 951.667 -45.2598 952.028 -55.4465 947.367C-60.9862 944.766 -66.6095 941.016 -72.7386 937.129L-317.929 781.332C-317.929 781.332 -324.791 776.724 -332.301 774.303C-345.242 770.13 -359.36 770.241 -370.712 774.274C-384.178 779.054 -395.069 789.275 -401.681 804.086C-407.844 817.946 -408.154 834.916 -404.968 852.224C-400.732 875.246 -390.3 898.788 -379.151 916.345C-374.228 924.098 -362.436 938.932 -362.436 938.932C-355.753 947.1 -348.878 954.896 -342.552 962.107C-329.083 977.967 -317.026 994.695 -320.236 1001.91C-322.218 1006.37 -328.291 1006.73 -338.478 1002.07C-344.018 999.47 -349.641 995.72 -355.77 991.833L-600.96 836.036C-600.96 836.036 -607.822 831.428 -615.332 829.007C-628.274 824.834 -642.391 824.945 -653.744 828.979C-667.21 833.758 -678.1 843.979 -684.713 858.79C-690.876 872.65 -691.185 889.62 -687.999 906.928C-683.763 929.95 -673.332 953.492 -662.183 971.049C-657.26 978.802 -651.51 986.337 -645.562 993.606C-638.865 1001.8 -631.929 1009.64 -625.637 1016.87C-612.168 1032.73 -600.111 1049.46 -603.321 1056.68C-605.302 1061.13 -611.376 1061.5 -621.563 1056.83C-627.103 1054.23 -632.819 1050.63 -638.855 1046.6C-654.494 1035.31 -670.349 1023.12 -685.088 1016.43C-720.042 1000.06 -752.367 1010.94 -766.06 1041.73C-780.427 1074.05 -763.052 1123.27 -743.544 1153.96C-738.621 1161.72 -732.872 1169.25 -726.923 1176.52C-720.226 1184.72 -713.29 1192.56 -706.998 1199.79C-693.529 1215.64 -681.472 1232.37 -684.682 1239.59C-686.664 1244.05 -692.737 1244.41 -702.924 1239.75C-708.464 1237.15 -714.087 1233.4 -720.216 1229.51L-965.406 1073.71C-965.406 1073.71 -972.268 1069.11 -979.778 1066.69C-992.72 1062.51 -1006.84 1062.62 -1018.19 1066.66C-1031.66 1071.44 -1042.55 1081.66 -1049.16 1096.47C-1055.32 1110.33 -1055.63 1127.3 -1052.45 1144.61C-1048.21 1167.63 -1037.78 1191.17 -1026.63 1208.73C-1021.71 1216.48 -1015.96 1224.02 -1010.01 1231.28C-1003.31 1239.48 -996.375 1247.32 -990.083 1254.55C-976.614 1270.41 -964.557 1287.14 -967.767 1294.36C-969.748 1298.81 -975.822 1299.17 -986.009 1294.51C-991.549 1291.91 -997.265 1288.31 -1003.3 1284.27C-1018.94 1272.99 -1034.79 1260.8 -1049.53 1254.11C-1084.49 1237.74 -1116.81 1248.62 -1130.51 1279.41C-1144.87 1311.72 -1127.5 1360.94 -1107.99 1391.64C-1103.07 1399.4 -1097.32 1406.93 -1091.37 1414.2C-1084.67 1422.4 -1077.74 1430.24 -1071.44 1437.46C-1057.97 1453.32 -1045.92 1470.05 -1049.13 1477.27C-1051.11 1481.73 -1057.18 1482.09 -1067.37 1477.43C-1072.91 1474.83 -1078.63 1471.23 -1084.66 1467.19C-1100.3 1455.91 -1116.16 1443.71 -1130.9 1437.02C-1165.85 1420.66 -1198.17 1431.53 -1211.87 1462.33C-1226.09 1494.25 -1208.73 1543.44 -1189.21 1574.17C-1184.28 1581.92 -1178.53 1589.46 -1172.59 1596.73L-1119.59 1613.81C-1126.29 1605.62 -1133.22 1597.78 -1139.51 1590.55C-1152.98 1574.69 -1165.04 1557.96 -1161.83 1550.74C-1159.85 1546.29 -1153.78 1545.93 -1143.59 1550.59C-1138.05 1553.19 -1132.33 1556.79 -1126.3 1560.82C-1110.66 1572.11 -1094.8 1584.3 -1080.06 1590.99C-1045.11 1607.36 -1012.79 1596.48 -999.092 1565.69C-984.725 1533.38 -1002.1 1484.15 -1021.61 1453.46C-1026.53 1445.7 -1032.28 1438.17 -1038.23 1430.9C-1044.93 1422.7 -1051.86 1414.86 -1058.15 1407.63C-1071.62 1391.78 -1083.68 1375.05 -1080.47 1367.83C-1078.49 1363.37 -1072.41 1363.01 -1062.23 1367.67C-1056.69 1370.27 -1050.97 1373.87 -1044.94 1377.91C-1029.3 1389.19 -1013.44 1401.39 -998.703 1408.08C-963.749 1424.44 -931.424 1413.57 -917.731 1382.77C-903.364 1350.46 -920.739 1301.24 -940.247 1270.54C-945.17 1262.79 -950.919 1255.25 -956.868 1247.98C-963.565 1239.79 -970.501 1231.95 -976.792 1224.72C-990.262 1208.86 -1002.32 1192.13 -999.109 1184.91C-997.127 1180.46 -991.054 1180.1 -980.867 1184.76C-975.327 1187.36 -969.704 1191.11 -963.575 1194.99L-718.385 1350.79C-718.385 1350.79 -711.523 1355.4 -704.013 1357.82C-691.071 1361.99 -676.954 1361.88 -665.601 1357.85C-652.135 1353.07 -641.245 1342.85 -634.632 1328.04C-628.469 1314.18 -628.16 1297.21 -631.346 1279.9C-635.582 1256.88 -646.013 1233.33 -657.162 1215.78C-662.085 1208.03 -667.834 1200.49 -673.783 1193.22C-680.48 1185.02 -687.416 1177.18 -693.708 1169.96C-707.177 1154.1 -719.234 1137.37 -716.024 1130.15C-714.042 1125.69 -707.969 1125.33 -697.782 1129.99C-692.242 1132.59 -686.526 1136.2 -680.49 1140.23C-664.851 1151.52 -648.996 1163.71 -634.257 1170.4C-599.303 1186.76 -566.978 1175.89 -553.285 1145.09C-538.918 1112.78 -556.293 1063.56 -575.801 1032.86C-580.724 1025.11 -586.473 1017.57 -592.422 1010.31C-599.119 1002.11 -606.055 994.267 -612.346 987.041C-625.816 971.182 -637.873 954.454 -634.663 947.234C-632.681 942.777 -626.608 942.417 -616.421 947.077C-610.881 949.679 -605.258 953.428 -599.129 957.316L-353.939 1113.11C-353.939 1113.11 -347.077 1117.72 -339.567 1120.14C-326.625 1124.31 -312.508 1124.2 -301.155 1120.17C-287.689 1115.39 -276.799 1105.17 -270.186 1090.36C-264.023 1076.5 -263.714 1059.53 -266.9 1042.22C-271.136 1019.2 -281.567 995.657 -292.716 978.1C-297.639 970.347 -303.389 962.812 -309.337 955.543L-309.432 955.513C-316.115 947.345 -322.99 939.549 -329.315 932.337C-342.785 916.478 -354.842 899.75 -351.632 892.53C-349.65 888.073 -343.576 887.713 -333.39 892.373C-327.85 894.975 -322.226 898.724 -316.097 902.611L-70.9071 1058.41C-70.9071 1058.41 -64.0451 1063.02 -56.5352 1065.44C-43.5935 1069.61 -29.4762 1069.5 -18.1238 1065.47C-4.6578 1060.69 6.23258 1050.47 12.8452 1035.65C19.0082 1021.79 19.3177 1004.82 16.1318 987.517C11.8956 964.495 1.46407 940.953 -9.68473 923.396C-14.6079 915.643 -20.357 908.107 -26.3058 900.839C-33.0025 892.641 -39.9385 884.8 -46.2301 877.574C-59.6998 861.715 -71.7569 844.986 -68.5466 837.766C-66.565 833.31 -60.4914 832.95 -50.3047 837.61C-44.765 840.211 -39.0486 843.813 -33.0124 847.848C-17.3736 859.133 -1.51848 871.328 13.2207 878.016C48.1748 894.382 80.4994 883.505 94.1927 852.71C108.56 820.4 91.1849 771.179 71.6764 740.481C66.7532 732.728 61.0041 725.193 55.0554 717.924C48.3587 709.727 41.4226 701.885 35.131 694.659C21.6613 678.8 9.60414 662.071 12.8144 654.851C14.7961 650.395 20.8698 650.035 31.0565 654.695C36.5962 657.297 42.3125 660.898 48.3488 664.933C63.9876 676.218 79.8426 688.413 94.5818 695.102C129.536 711.468 161.86 700.591 175.554 669.795C189.921 637.485 172.546 588.264 153.038 557.566C148.114 549.813 142.365 542.278 136.416 535.009C129.72 526.812 122.784 518.97 116.492 511.744C103.022 495.885 90.9653 479.156 94.1756 471.937C96.1573 467.48 102.231 467.12 112.418 471.78C117.957 474.382 123.581 478.131 129.71 482.018L374.9 637.816C374.9 637.816 381.762 642.423 389.272 644.844C402.214 649.017 416.331 648.907 427.683 644.873C441.149 640.094 452.04 629.872 458.652 615.062C464.815 601.202 465.125 584.231 461.939 566.923C457.703 543.901 447.271 520.359 436.123 502.803C431.199 495.05 425.45 487.514 419.501 480.246L419.407 480.215C412.724 472.048 405.849 464.251 399.524 457.04C386.054 441.181 373.997 424.452 377.207 417.232C379.189 412.776 385.262 412.416 395.449 417.076C400.989 419.677 406.612 423.427 412.741 427.314L657.932 583.111C657.932 583.111 664.794 587.719 672.304 590.14C685.245 594.313 699.363 594.203 710.715 590.169C724.181 585.389 735.071 575.168 741.684 560.358C747.847 546.497 748.156 529.527 744.97 512.219C740.734 489.197 730.303 465.655 719.154 448.098C714.231 440.345 708.482 432.81 702.533 425.542L702.438 425.511C695.755 417.344 688.88 409.547 682.555 402.336C669.086 386.477 657.028 369.748 660.239 362.528C662.22 358.072 668.294 357.711 678.481 362.372C684.021 364.973 689.644 368.723 695.773 372.61L940.963 528.407C940.963 528.407 947.825 533.015 955.335 535.436C968.277 539.609 982.394 539.498 993.747 535.464C1007.21 530.685 1018.1 520.464 1024.72 505.653C1030.88 491.793 1031.19 474.823 1028 457.515C1023.77 434.493 1013.33 410.951 1002.19 393.394C997.262 385.641 991.513 378.106 985.564 370.838C978.868 362.64 971.932 354.798 965.64 347.572C952.17 331.713 940.113 314.985 943.324 307.765C945.305 303.308 951.379 302.948 961.566 307.608C967.105 310.21 972.822 313.811 978.858 317.847C994.497 329.131 1010.35 341.326 1025.09 348.015C1060.05 364.381 1092.37 353.504 1106.06 322.709C1120.43 290.398 1103.06 241.178 1083.55 210.479C1078.62 202.726 1072.87 195.191 1066.93 187.923C1060.23 179.725 1053.29 171.884 1047 164.657C1033.53 148.798 1021.47 132.07 1024.68 124.85C1026.67 120.393 1032.74 120.033 1042.93 124.693C1048.47 127.295 1054.18 130.896 1060.22 134.932C1075.86 146.216 1091.71 158.411 1106.45 165.1C1141.41 181.466 1173.73 170.589 1187.42 139.794C1201.79 107.483 1184.42 58.2625 1164.91 27.5644C1159.98 19.8114 1154.24 12.2761 1148.29 5.00763C1141.59 -3.18989 1134.65 -11.0314 1128.36 -18.2575C1114.89 -34.1167 1102.84 -50.8452 1106.05 -58.065C1108.03 -62.5216 1114.1 -62.8818 1124.29 -58.2214C1129.83 -55.6199 1135.45 -51.8704 1141.58 -47.9833L1386.77 107.814C1386.77 107.814 1393.63 112.421 1401.14 114.843C1414.08 119.016 1428.2 118.905 1439.55 114.871C1453.02 110.092 1463.91 99.8709 1470.52 85.0602C1476.69 71.2 1477 54.2296 1473.81 36.9219C1469.57 13.8998 1459.14 -9.64226 1447.99 -27.1989C1443.07 -34.952 1437.32 -42.4873 1431.37 -49.7557C1424.67 -57.9533 1417.74 -65.7948 1411.45 -73.0209C1397.98 -88.88 1385.92 -105.609 1389.13 -112.828C1391.11 -117.285 1397.19 -117.645 1407.37 -112.985C1412.91 -110.383 1418.63 -106.782 1424.67 -102.747C1440.3 -91.4621 1456.16 -79.267 1470.9 -72.5783C1505.85 -56.2123 1538.18 -67.0893 1551.87 -97.8846C1566.24 -130.195 1548.86 -179.416 1529.35 -210.114C1524.43 -217.867 1518.68 -225.402 1512.73 -232.671L1459.74 -249.758C1466.43 -241.56 1473.37 -233.719 1479.66 -226.493L1479.45 -226.077Z" fill="white" fill-opacity="0.45"/>
<path d="M1479.45 -226.077C1492.92 -210.218 1504.98 -193.489 1501.77 -186.27C1499.79 -181.813 1493.71 -181.453 1483.53 -186.113C1477.99 -188.715 1472.27 -192.316 1466.23 -196.351C1450.59 -207.636 1434.74 -219.831 1420 -226.52C1385.05 -242.886 1352.72 -232.009 1339.03 -201.213C1324.66 -168.903 1342.04 -119.682 1361.54 -88.9841C1366.47 -81.231 1372.22 -73.6957 1378.17 -66.4273C1384.86 -58.2297 1391.8 -50.3882 1398.09 -43.1621C1411.56 -27.3029 1423.62 -10.5744 1420.41 -3.35468C1418.42 1.10195 1412.35 1.46218 1402.16 -3.19817C1396.62 -5.79967 1391 -9.54923 1384.87 -13.4363L1139.68 -169.234C1139.68 -169.234 1132.82 -173.841 1125.31 -176.263C1112.37 -180.435 1098.25 -180.325 1086.9 -176.291C1073.43 -171.512 1062.54 -161.291 1055.93 -146.48C1049.77 -132.62 1049.46 -115.649 1052.64 -98.3415C1056.88 -75.3194 1067.31 -51.7774 1078.46 -34.2207C1083.38 -26.4677 1089.13 -18.9324 1095.08 -11.6639C1101.78 -3.46638 1108.71 4.3752 1115 11.6013C1128.47 27.4605 1140.53 44.189 1137.32 51.4087C1135.34 55.8653 1129.27 56.2255 1119.08 51.5651C1113.54 48.9636 1107.82 45.3625 1101.79 41.3271C1086.15 30.0425 1070.29 17.8474 1055.55 11.1587C1020.6 -5.20727 988.275 5.66973 974.582 36.4651C960.215 68.7757 977.59 117.996 997.098 148.694C1002.02 156.447 1007.77 163.983 1013.72 171.251C1020.42 179.449 1027.35 187.29 1033.68 194.502C1047.15 210.361 1059.2 227.089 1055.99 234.309C1054.01 238.766 1047.94 239.126 1037.75 234.465C1032.21 231.864 1026.5 228.263 1020.46 224.227C1004.82 212.943 988.965 200.748 974.226 194.059C939.272 177.693 906.947 188.57 893.254 219.365C878.887 251.676 896.262 300.896 915.77 331.594C920.694 339.348 926.443 346.883 932.391 354.151C939.088 362.349 946.024 370.19 952.349 377.402C965.819 393.261 977.876 409.99 974.666 417.209C972.684 421.666 966.611 422.026 956.424 417.366C950.884 414.764 945.261 411.015 939.132 407.128L693.941 251.33C693.941 251.33 687.079 246.723 679.569 244.301C666.628 240.128 652.511 240.239 641.158 244.273C627.692 249.052 616.802 259.273 610.189 274.084C604.026 287.944 603.717 304.915 606.903 322.222C611.139 345.244 621.57 368.786 632.719 386.343C637.642 394.096 643.411 401.587 649.36 408.855C656.057 417.053 662.993 424.894 669.318 432.106C682.787 447.965 694.845 464.694 691.634 471.913C689.653 476.37 683.579 476.73 673.392 472.07C667.853 469.468 662.229 465.719 656.1 461.832L410.91 306.034C410.91 306.034 404.048 301.427 396.538 299.005C383.596 294.833 369.479 294.943 358.126 298.977C344.66 303.756 333.77 313.978 327.158 328.788C320.995 342.648 320.685 359.619 323.871 376.926C328.107 399.949 338.539 423.491 349.687 441.047C354.611 448.8 366.403 463.635 366.403 463.635C373.086 471.802 379.961 479.599 386.286 486.81C399.756 502.669 411.813 519.398 408.603 526.617C406.621 531.074 400.547 531.434 390.361 526.774C384.821 524.172 379.198 520.423 373.068 516.536L127.878 360.739C127.878 360.739 121.016 356.131 113.506 353.71C100.565 349.537 86.4473 349.647 75.0949 353.681C61.6289 358.461 50.7385 368.682 44.1258 383.492C37.9629 397.353 37.6535 414.323 40.8394 431.631C45.0755 454.653 55.507 478.195 66.6558 495.751C71.579 503.505 77.3282 511.04 83.277 518.308C89.9737 526.506 96.9097 534.347 103.201 541.573C116.671 557.433 128.728 574.161 125.518 581.381C123.536 585.838 117.462 586.198 107.276 581.537C101.736 578.936 96.0197 575.335 89.9835 571.299C74.3447 560.015 58.4897 547.82 43.7505 541.131C8.79643 524.765 -23.5282 535.642 -37.2215 566.437C-51.5886 598.748 -34.2138 647.968 -14.7053 678.666C-9.78206 686.419 -4.03297 693.955 1.91579 701.223C8.61251 709.421 15.5486 717.262 21.8402 724.488C35.3099 740.348 47.3669 757.076 44.1566 764.296C42.175 768.752 36.1014 769.113 25.9147 764.452C20.375 761.851 14.6586 758.25 8.62242 754.214C-7.01642 742.93 -22.8714 730.734 -37.6106 724.046C-72.5646 707.68 -104.889 718.557 -118.583 749.352C-132.95 781.663 -115.575 830.883 -96.0663 861.581C-91.1431 869.334 -85.394 876.87 -79.4453 884.138C-72.7486 892.336 -65.8126 900.177 -59.521 907.403C-46.0512 923.263 -33.9941 939.991 -37.2044 947.211C-39.1861 951.667 -45.2598 952.028 -55.4465 947.367C-60.9862 944.766 -66.6095 941.016 -72.7386 937.129L-317.929 781.332C-317.929 781.332 -324.791 776.724 -332.301 774.303C-345.242 770.13 -359.36 770.241 -370.712 774.274C-384.178 779.054 -395.069 789.275 -401.681 804.086C-407.844 817.946 -408.154 834.916 -404.968 852.224C-400.732 875.246 -390.3 898.788 -379.151 916.345C-374.228 924.098 -362.436 938.932 -362.436 938.932C-355.753 947.1 -348.878 954.896 -342.552 962.107C-329.083 977.967 -317.026 994.695 -320.236 1001.91C-322.218 1006.37 -328.291 1006.73 -338.478 1002.07C-344.018 999.47 -349.641 995.72 -355.77 991.833L-600.96 836.036C-600.96 836.036 -607.822 831.428 -615.332 829.007C-628.274 824.834 -642.391 824.945 -653.744 828.979C-667.21 833.758 -678.1 843.979 -684.713 858.79C-690.876 872.65 -691.185 889.62 -687.999 906.928C-683.763 929.95 -673.332 953.492 -662.183 971.049C-657.26 978.802 -651.51 986.337 -645.562 993.606C-638.865 1001.8 -631.929 1009.64 -625.637 1016.87C-612.168 1032.73 -600.111 1049.46 -603.321 1056.68C-605.302 1061.13 -611.376 1061.5 -621.563 1056.83C-627.103 1054.23 -632.819 1050.63 -638.855 1046.6C-654.494 1035.31 -670.349 1023.12 -685.088 1016.43C-720.042 1000.06 -752.367 1010.94 -766.06 1041.73C-780.427 1074.05 -763.052 1123.27 -743.544 1153.96C-738.621 1161.72 -732.872 1169.25 -726.923 1176.52C-720.226 1184.72 -713.29 1192.56 -706.998 1199.79C-693.529 1215.64 -681.472 1232.37 -684.682 1239.59C-686.664 1244.05 -692.737 1244.41 -702.924 1239.75C-708.464 1237.15 -714.087 1233.4 -720.216 1229.51L-965.406 1073.71C-965.406 1073.71 -972.268 1069.11 -979.778 1066.69C-992.72 1062.51 -1006.84 1062.62 -1018.19 1066.66C-1031.66 1071.44 -1042.55 1081.66 -1049.16 1096.47C-1055.32 1110.33 -1055.63 1127.3 -1052.45 1144.61C-1048.21 1167.63 -1037.78 1191.17 -1026.63 1208.73C-1021.71 1216.48 -1015.96 1224.02 -1010.01 1231.28C-1003.31 1239.48 -996.375 1247.32 -990.083 1254.55C-976.614 1270.41 -964.557 1287.14 -967.767 1294.36C-969.748 1298.81 -975.822 1299.17 -986.009 1294.51C-991.549 1291.91 -997.265 1288.31 -1003.3 1284.27C-1018.94 1272.99 -1034.79 1260.8 -1049.53 1254.11C-1084.49 1237.74 -1116.81 1248.62 -1130.51 1279.41C-1144.87 1311.72 -1127.5 1360.94 -1107.99 1391.64C-1103.07 1399.4 -1097.32 1406.93 -1091.37 1414.2C-1084.67 1422.4 -1077.74 1430.24 -1071.44 1437.46C-1057.97 1453.32 -1045.92 1470.05 -1049.13 1477.27C-1051.11 1481.73 -1057.18 1482.09 -1067.37 1477.43C-1072.91 1474.83 -1078.63 1471.23 -1084.66 1467.19C-1100.3 1455.91 -1116.16 1443.71 -1130.9 1437.02C-1165.85 1420.66 -1198.17 1431.53 -1211.87 1462.33C-1226.09 1494.25 -1208.73 1543.44 -1189.21 1574.17C-1184.28 1581.92 -1178.53 1589.46 -1172.59 1596.73L-1119.59 1613.81C-1126.29 1605.62 -1133.22 1597.78 -1139.51 1590.55C-1152.98 1574.69 -1165.04 1557.96 -1161.83 1550.74C-1159.85 1546.29 -1153.78 1545.93 -1143.59 1550.59C-1138.05 1553.19 -1132.33 1556.79 -1126.3 1560.82C-1110.66 1572.11 -1094.8 1584.3 -1080.06 1590.99C-1045.11 1607.36 -1012.79 1596.48 -999.092 1565.69C-984.725 1533.38 -1002.1 1484.15 -1021.61 1453.46C-1026.53 1445.7 -1032.28 1438.17 -1038.23 1430.9C-1044.93 1422.7 -1051.86 1414.86 -1058.15 1407.63C-1071.62 1391.78 -1083.68 1375.05 -1080.47 1367.83C-1078.49 1363.37 -1072.41 1363.01 -1062.23 1367.67C-1056.69 1370.27 -1050.97 1373.87 -1044.94 1377.91C-1029.3 1389.19 -1013.44 1401.39 -998.703 1408.08C-963.749 1424.44 -931.424 1413.57 -917.731 1382.77C-903.364 1350.46 -920.739 1301.24 -940.247 1270.54C-945.17 1262.79 -950.919 1255.25 -956.868 1247.98C-963.565 1239.79 -970.501 1231.95 -976.792 1224.72C-990.262 1208.86 -1002.32 1192.13 -999.109 1184.91C-997.127 1180.46 -991.054 1180.1 -980.867 1184.76C-975.327 1187.36 -969.704 1191.11 -963.575 1194.99L-718.385 1350.79C-718.385 1350.79 -711.523 1355.4 -704.013 1357.82C-691.071 1361.99 -676.954 1361.88 -665.601 1357.85C-652.135 1353.07 -641.245 1342.85 -634.632 1328.04C-628.469 1314.18 -628.16 1297.21 -631.346 1279.9C-635.582 1256.88 -646.013 1233.33 -657.162 1215.78C-662.085 1208.03 -667.834 1200.49 -673.783 1193.22C-680.48 1185.02 -687.416 1177.18 -693.708 1169.96C-707.177 1154.1 -719.234 1137.37 -716.024 1130.15C-714.042 1125.69 -707.969 1125.33 -697.782 1129.99C-692.242 1132.59 -686.526 1136.2 -680.49 1140.23C-664.851 1151.52 -648.996 1163.71 -634.257 1170.4C-599.303 1186.76 -566.978 1175.89 -553.285 1145.09C-538.918 1112.78 -556.293 1063.56 -575.801 1032.86C-580.724 1025.11 -586.473 1017.57 -592.422 1010.31C-599.119 1002.11 -606.055 994.267 -612.346 987.041C-625.816 971.182 -637.873 954.454 -634.663 947.234C-632.681 942.777 -626.608 942.417 -616.421 947.077C-610.881 949.679 -605.258 953.428 -599.129 957.316L-353.939 1113.11C-353.939 1113.11 -347.077 1117.72 -339.567 1120.14C-326.625 1124.31 -312.508 1124.2 -301.155 1120.17C-287.689 1115.39 -276.799 1105.17 -270.186 1090.36C-264.023 1076.5 -263.714 1059.53 -266.9 1042.22C-271.136 1019.2 -281.567 995.657 -292.716 978.1C-297.639 970.347 -303.389 962.812 -309.337 955.543L-309.432 955.513C-316.115 947.345 -322.99 939.549 -329.315 932.337C-342.785 916.478 -354.842 899.75 -351.632 892.53C-349.65 888.073 -343.576 887.713 -333.39 892.373C-327.85 894.975 -322.226 898.724 -316.097 902.611L-70.9071 1058.41C-70.9071 1058.41 -64.0451 1063.02 -56.5352 1065.44C-43.5935 1069.61 -29.4762 1069.5 -18.1238 1065.47C-4.6578 1060.69 6.23258 1050.47 12.8452 1035.65C19.0082 1021.79 19.3177 1004.82 16.1318 987.517C11.8956 964.495 1.46407 940.953 -9.68473 923.396C-14.6079 915.643 -20.357 908.107 -26.3058 900.839C-33.0025 892.641 -39.9385 884.8 -46.2301 877.574C-59.6998 861.715 -71.7569 844.986 -68.5466 837.766C-66.565 833.31 -60.4914 832.95 -50.3047 837.61C-44.765 840.211 -39.0486 843.813 -33.0124 847.848C-17.3736 859.133 -1.51848 871.328 13.2207 878.016C48.1748 894.382 80.4994 883.505 94.1927 852.71C108.56 820.4 91.1849 771.179 71.6764 740.481C66.7532 732.728 61.0041 725.193 55.0554 717.924C48.3587 709.727 41.4226 701.885 35.131 694.659C21.6613 678.8 9.60414 662.071 12.8144 654.851C14.7961 650.395 20.8698 650.035 31.0565 654.695C36.5962 657.297 42.3125 660.898 48.3488 664.933C63.9876 676.218 79.8426 688.413 94.5818 695.102C129.536 711.468 161.86 700.591 175.554 669.795C189.921 637.485 172.546 588.264 153.038 557.566C148.114 549.813 142.365 542.278 136.416 535.009C129.72 526.812 122.784 518.97 116.492 511.744C103.022 495.885 90.9653 479.156 94.1756 471.937C96.1573 467.48 102.231 467.12 112.418 471.78C117.957 474.382 123.581 478.131 129.71 482.018L374.9 637.816C374.9 637.816 381.762 642.423 389.272 644.844C402.214 649.017 416.331 648.907 427.683 644.873C441.149 640.094 452.04 629.872 458.652 615.062C464.815 601.202 465.125 584.231 461.939 566.923C457.703 543.901 447.271 520.359 436.123 502.803C431.199 495.05 425.45 487.514 419.501 480.246L419.407 480.215C412.724 472.048 405.849 464.251 399.524 457.04C386.054 441.181 373.997 424.452 377.207 417.232C379.189 412.776 385.262 412.416 395.449 417.076C400.989 419.677 406.612 423.427 412.741 427.314L657.932 583.111C657.932 583.111 664.794 587.719 672.304 590.14C685.245 594.313 699.363 594.203 710.715 590.169C724.181 585.389 735.071 575.168 741.684 560.358C747.847 546.497 748.156 529.527 744.97 512.219C740.734 489.197 730.303 465.655 719.154 448.098C714.231 440.345 708.482 432.81 702.533 425.542L702.438 425.511C695.755 417.344 688.88 409.547 682.555 402.336C669.086 386.477 657.028 369.748 660.239 362.528C662.22 358.072 668.294 357.711 678.481 362.372C684.021 364.973 689.644 368.723 695.773 372.61L940.963 528.407C940.963 528.407 947.825 533.015 955.335 535.436C968.277 539.609 982.394 539.498 993.747 535.464C1007.21 530.685 1018.1 520.464 1024.72 505.653C1030.88 491.793 1031.19 474.823 1028 457.515C1023.77 434.493 1013.33 410.951 1002.19 393.394C997.262 385.641 991.513 378.106 985.564 370.838C978.868 362.64 971.932 354.798 965.64 347.572C952.17 331.713 940.113 314.985 943.324 307.765C945.305 303.308 951.379 302.948 961.566 307.608C967.105 310.21 972.822 313.811 978.858 317.847C994.497 329.131 1010.35 341.326 1025.09 348.015C1060.05 364.381 1092.37 353.504 1106.06 322.709C1120.43 290.398 1103.06 241.178 1083.55 210.479C1078.62 202.726 1072.87 195.191 1066.93 187.923C1060.23 179.725 1053.29 171.884 1047 164.657C1033.53 148.798 1021.47 132.07 1024.68 124.85C1026.67 120.393 1032.74 120.033 1042.93 124.693C1048.47 127.295 1054.18 130.896 1060.22 134.932C1075.86 146.216 1091.71 158.411 1106.45 165.1C1141.41 181.466 1173.73 170.589 1187.42 139.794C1201.79 107.483 1184.42 58.2625 1164.91 27.5644C1159.98 19.8114 1154.24 12.2761 1148.29 5.00763C1141.59 -3.18989 1134.65 -11.0314 1128.36 -18.2575C1114.89 -34.1167 1102.84 -50.8452 1106.05 -58.065C1108.03 -62.5216 1114.1 -62.8818 1124.29 -58.2214C1129.83 -55.6199 1135.45 -51.8704 1141.58 -47.9833L1386.77 107.814C1386.77 107.814 1393.63 112.421 1401.14 114.843C1414.08 119.016 1428.2 118.905 1439.55 114.871C1453.02 110.092 1463.91 99.8709 1470.52 85.0602C1476.69 71.2 1477 54.2296 1473.81 36.9219C1469.57 13.8998 1459.14 -9.64226 1447.99 -27.1989C1443.07 -34.952 1437.32 -42.4873 1431.37 -49.7557C1424.67 -57.9533 1417.74 -65.7948 1411.45 -73.0209C1397.98 -88.88 1385.92 -105.609 1389.13 -112.828C1391.11 -117.285 1397.19 -117.645 1407.37 -112.985C1412.91 -110.383 1418.63 -106.782 1424.67 -102.747C1440.3 -91.4621 1456.16 -79.267 1470.9 -72.5783C1505.85 -56.2123 1538.18 -67.0893 1551.87 -97.8846C1566.24 -130.195 1548.86 -179.416 1529.35 -210.114C1524.43 -217.867 1518.68 -225.402 1512.73 -232.671L1459.74 -249.758C1466.43 -241.56 1473.37 -233.719 1479.66 -226.493L1479.45 -226.077Z" stroke="white" stroke-opacity="0.45" stroke-width="20" mask="url(#path-1-outside-1_60_6539)"/>
</g>
</g>
<defs>
<linearGradient id="paint0_linear_60_6539" x1="1751.69" y1="752.31" x2="206.242" y2="298.308" gradientUnits="userSpaceOnUse">
<stop stop-color="#EFF1F4"/>
<stop offset="1" stop-color="#E0E4EA"/>
</linearGradient>
<clipPath id="clip0_60_6539">
<rect width="1952" height="653" fill="white"/>
</clipPath>
</defs>
</svg>
