<svg width="24" height="24" viewBox="0 0 24 24" fill="none" xmlns="http://www.w3.org/2000/svg">
<path d="M23.4675 10.4917L21.8354 8.59556C21.5233 8.23554 21.2713 7.5635 21.2713 7.08347V5.04334C21.2713 3.77126 20.2273 2.7272 18.9552 2.7272H16.9151C16.447 2.7272 15.763 2.47518 15.403 2.16316L13.5068 0.531063C12.6788 -0.17698 11.3227 -0.17698 10.4827 0.531063L8.59853 2.17517C8.23851 2.47518 7.55447 2.7272 7.08644 2.7272H5.01031C3.73823 2.7272 2.69417 3.77126 2.69417 5.04334V7.09547C2.69417 7.5635 2.44215 8.23554 2.14213 8.59556L0.522032 10.5037C-0.174011 11.3317 -0.174011 12.6758 0.522032 13.5039L2.14213 15.412C2.44215 15.772 2.69417 16.444 2.69417 16.9121V18.9642C2.69417 20.2363 3.73823 21.2803 5.01031 21.2803H7.08644C7.55447 21.2803 8.23851 21.5324 8.59853 21.8444L10.4947 23.4765C11.3227 24.1845 12.6788 24.1845 13.5188 23.4765L15.415 21.8444C15.775 21.5324 16.447 21.2803 16.9271 21.2803H18.9672C20.2393 21.2803 21.2833 20.2363 21.2833 18.9642V16.9241C21.2833 16.4561 21.5353 15.772 21.8474 15.412L23.4795 13.5159C24.1755 12.6878 24.1755 11.3197 23.4675 10.4917ZM16.9871 9.73563L11.1907 15.532C11.0219 15.7005 10.7932 15.7952 10.5547 15.7952C10.3161 15.7952 10.0874 15.7005 9.91862 15.532L7.01444 12.6278C6.66641 12.2798 6.66641 11.7038 7.01444 11.3557C7.36246 11.0077 7.93849 11.0077 8.28651 11.3557L10.5547 13.6239L15.715 8.46355C16.063 8.11553 16.639 8.11553 16.9871 8.46355C17.3351 8.81158 17.3351 9.38761 16.9871 9.73563Z" fill="#3863D3"/>
</svg>
