<svg width="30" height="30" viewBox="0 0 30 30" fill="none" xmlns="http://www.w3.org/2000/svg">
<g clip-path="url(#clip0_428_476)">
<path d="M13.5352 0.0410156C8.6543 0.539062 4.38281 3.31641 1.93945 7.57617C0.832031 9.49805 0.128906 11.8594 0.0175781 13.9863L-0.0175781 14.707H0.181641C0.890625 14.7012 3.84961 14.5781 4.48242 14.5312C7.46484 14.2852 9.375 13.7754 10.7812 12.8438C13.0957 11.3145 14.127 9.06445 14.502 4.76367C14.5723 3.97852 14.707 0.949219 14.707 0.158203V0L14.2266 0.0117188C13.957 0.0117188 13.6465 0.0292969 13.5352 0.0410156Z" fill="#636AA6"/>
<path d="M15.5859 0.298828C15.5859 0.984375 15.709 3.82031 15.7617 4.51172C16.0664 8.24414 16.834 10.4004 18.4043 11.959C20.1504 13.6875 22.7578 14.4492 27.4805 14.6191C27.9785 14.6367 28.7578 14.666 29.2031 14.6836L30.0176 14.7188L29.9824 13.9922C29.7715 10.002 27.7324 6.01172 24.5801 3.42773C22.1367 1.42969 19.1836 0.228516 16.1895 0.0234375L15.5859 -0.0175781V0.298828Z" fill="#636AA6"/>
<path d="M0.0234375 16.166C0.357422 21.0586 3.22266 25.5645 7.57617 28.0605C9.50391 29.168 11.8594 29.8711 13.9922 29.9824L14.7188 30.0176L14.6836 29.2031C14.666 28.7578 14.6367 27.9668 14.6191 27.4512C14.4961 24.0586 14.0684 21.832 13.207 20.1562C12.8086 19.3828 12.457 18.9141 11.7832 18.2637C10.7109 17.2324 9.46875 16.6113 7.67578 16.207C6.11133 15.8613 4.46484 15.709 1.26562 15.6094L-0.0175781 15.5742L0.0234375 16.166Z" fill="#636AA6"/>
<path d="M27.8672 15.6504C22.7402 15.8379 20.2207 16.5469 18.4336 18.3223C17.3789 19.3652 16.7402 20.5254 16.3184 22.1777C15.8965 23.8242 15.7266 25.4473 15.6152 28.9102L15.5742 30.0176L16.1719 29.9766C21.0527 29.6426 25.5645 26.7773 28.0605 22.4238C29.1328 20.5605 29.8301 18.2812 29.9766 16.1836L30.0176 15.5859L29.5547 15.5977C29.3027 15.5977 28.541 15.627 27.8672 15.6504Z" fill="#636AA6"/>
</g>
<defs>
<clipPath id="clip0_428_476">
<rect width="30" height="30" fill="white"/>
</clipPath>
</defs>
</svg>
