<svg width="15" height="15" viewBox="0 0 15 15" fill="none" xmlns="http://www.w3.org/2000/svg">
<path d="M5.16667 7.5V9.05556M2.83333 7.5V9.83333M7.5 7.5V9.83333M12.1667 7.5V9.83333M9.83333 7.5V9.05556M0.5 0.5V3.61111M0.5 2.05556H14.5M14.5 0.5V3.61111M13.625 7.5C14.108 7.5 14.5 7.89822 14.5 8.389V12.8332C14.5 13.324 14.108 13.7222 13.625 13.7222H1.27778C1.0715 13.7222 0.873667 13.6403 0.727806 13.4944C0.581944 13.3486 0.5 13.1507 0.5 12.9444V8.389C0.5 7.89822 0.892 7.5 1.375 7.5H13.625Z" stroke="#003E6E" stroke-linecap="round" stroke-linejoin="round"/>
</svg>
