<svg width="30" height="30" viewBox="0 0 30 30" fill="none" xmlns="http://www.w3.org/2000/svg">
<g clip-path="url(#clip0_428_455)">
<path d="M15 30C23.2843 30 30 23.2843 30 15C30 6.71573 23.2843 0 15 0C6.71573 0 0 6.71573 0 15C0 23.2843 6.71573 30 15 30Z" fill="url(#paint0_linear_428_455)"/>
<path fill-rule="evenodd" clip-rule="evenodd" d="M6.78979 14.8417C11.1626 12.9365 14.0785 11.6805 15.5374 11.0737C19.7031 9.34109 20.5687 9.04009 21.1328 9.03013C21.2569 9.02797 21.5344 9.05873 21.7141 9.20457C21.9807 9.4209 21.9822 9.89047 21.9526 10.2012C21.7269 12.5731 20.7501 18.329 20.2532 20.9855C20.0429 22.1095 19.6289 22.4865 19.2281 22.5233C18.357 22.6035 17.6955 21.9477 16.8519 21.3946C15.5317 20.5292 14.7858 19.9905 13.5043 19.1461C12.0234 18.1701 12.9834 17.6337 13.8274 16.7571C14.0483 16.5277 17.8863 13.0368 17.9606 12.7201C17.9699 12.6805 17.9785 12.5328 17.8908 12.4549C17.8031 12.377 17.6736 12.4036 17.5802 12.4248C17.4478 12.4548 15.3388 13.8488 11.2532 16.6067C10.6545 17.0178 10.1123 17.2181 9.62649 17.2076C9.09088 17.1961 8.06069 16.9048 7.29481 16.6558C6.35543 16.3505 5.60883 16.189 5.67387 15.6704C5.70774 15.4003 6.07969 15.1241 6.78979 14.8417Z" fill="white"/>
</g>
<defs>
<linearGradient id="paint0_linear_428_455" x1="15" y1="0" x2="15" y2="29.7656" gradientUnits="userSpaceOnUse">
<stop stop-color="#2AABEE"/>
<stop offset="1" stop-color="#229ED9"/>
</linearGradient>
<clipPath id="clip0_428_455">
<rect width="30" height="30" fill="white"/>
</clipPath>
</defs>
</svg>
