<svg width="30" height="30" viewBox="0 0 30 30" fill="none" xmlns="http://www.w3.org/2000/svg">
<g clip-path="url(#clip0_428_436)">
<path d="M15 30C23.2843 30 30 23.2843 30 15C30 6.71573 23.2843 0 15 0C6.71573 0 0 6.71573 0 15C0 23.2843 6.71573 30 15 30Z" fill="#4169E1"/>
<path d="M23.6455 20.8704C23.2091 20.9317 21.075 20.8704 20.9643 20.8704C20.4126 20.8774 19.8804 20.6667 19.483 20.284C19.033 19.851 18.6307 19.3738 18.191 18.9204C18.0609 18.7827 17.9201 18.6556 17.7699 18.5402C17.4188 18.2692 17.0711 18.3306 16.9057 18.7448C16.7765 19.1924 16.6864 19.6504 16.6364 20.1135C16.6074 20.5329 16.3415 20.7954 15.8711 20.8243C15.5796 20.8397 15.2881 20.8448 15 20.838C13.9502 20.8313 12.9169 20.576 11.9847 20.0931C10.9761 19.531 10.0973 18.7626 9.40573 17.838C8.2688 16.3857 7.36027 14.7902 6.54891 13.1454C6.50629 13.0635 5.67448 11.2942 5.65402 11.2107C5.57902 10.9312 5.65402 10.6635 5.88414 10.5715C6.03073 10.5152 8.77164 10.5715 8.81766 10.5715C9.02143 10.5697 9.22047 10.6329 9.38595 10.7518C9.55144 10.8707 9.67478 11.0392 9.73811 11.2329C10.2448 12.5302 10.9385 13.7465 11.7972 14.8431C11.9174 14.9897 12.058 15.1183 12.2148 15.2249C12.4381 15.3766 12.6495 15.3238 12.7415 15.0664C12.8506 14.7093 12.9147 14.3399 12.9324 13.967C12.9478 13.2272 12.9324 12.7397 12.8915 12.0016C12.8643 11.5277 12.6972 11.1118 11.9983 10.9789C11.7836 10.9414 11.7648 10.7641 11.9029 10.5868C12.191 10.2187 12.5847 10.1607 13.0262 10.1385C13.6841 10.101 14.3421 10.1266 15 10.1385H15.1432C15.4296 10.1375 15.7153 10.1666 15.9955 10.2255C16.1612 10.259 16.3116 10.3451 16.4243 10.4711C16.537 10.597 16.6061 10.756 16.6211 10.9243C16.6547 11.111 16.669 11.3006 16.6637 11.4902C16.6466 12.2982 16.6074 13.1045 16.5989 13.9124C16.5911 14.2323 16.6202 14.552 16.6858 14.8652C16.7796 15.2948 17.0745 15.4022 17.3677 15.092C17.7473 14.6909 18.0955 14.2612 18.4091 13.8067C18.9638 12.9784 19.4213 12.089 19.7728 11.1562C19.9637 10.6772 20.1137 10.5715 20.625 10.5715H23.533C23.7059 10.5685 23.8783 10.5914 24.0444 10.6397C24.1031 10.6551 24.1581 10.6825 24.2058 10.7202C24.2535 10.7579 24.2929 10.805 24.3215 10.8586C24.3502 10.9122 24.3674 10.9712 24.3723 11.0317C24.3771 11.0923 24.3693 11.1533 24.3495 11.2107C24.2063 11.8482 23.862 12.392 23.4972 12.9152C22.9057 13.7539 22.2819 14.5704 21.6768 15.3954C21.6002 15.5048 21.5302 15.6186 21.4671 15.7363C21.2387 16.1471 21.2557 16.3772 21.5864 16.7198C22.1148 17.2618 22.679 17.7715 23.1887 18.3306C23.5629 18.737 23.9006 19.1757 24.1978 19.6414C24.5711 20.2192 24.341 20.7715 23.6455 20.8704Z" fill="white"/>
</g>
<defs>
<clipPath id="clip0_428_436">
<rect width="30" height="30" fill="white"/>
</clipPath>
</defs>
</svg>
