<svg width="26" height="27" viewBox="0 0 26 27" fill="none" xmlns="http://www.w3.org/2000/svg">
<path d="M7.75 26.4167C7.03958 26.4167 6.43164 26.164 5.92617 25.6585C5.41983 25.1522 5.16667 24.5438 5.16667 23.8334C5.16667 23.123 5.41983 22.5146 5.92617 22.0082C6.43164 21.5028 7.03958 21.25 7.75 21.25C8.46042 21.25 9.06836 21.5028 9.57383 22.0082C10.0802 22.5146 10.3333 23.123 10.3333 23.8334C10.3333 24.5438 10.0802 25.1522 9.57383 25.6585C9.06836 26.164 8.46042 26.4167 7.75 26.4167ZM20.6667 26.4167C19.9562 26.4167 19.3483 26.164 18.8428 25.6585C18.3365 25.1522 18.0833 24.5438 18.0833 23.8334C18.0833 23.123 18.3365 22.5146 18.8428 22.0082C19.3483 21.5028 19.9562 21.25 20.6667 21.25C21.3771 21.25 21.9855 21.5028 22.4918 22.0082C22.9973 22.5146 23.25 23.123 23.25 23.8334C23.25 24.5438 22.9973 25.1522 22.4918 25.6585C21.9855 26.164 21.3771 26.4167 20.6667 26.4167ZM6.65208 5.75004L9.75208 12.2084H18.7937L22.3458 5.75004H6.65208ZM5.425 3.16671H24.4771C24.9722 3.16671 25.349 3.38715 25.6073 3.82804C25.8656 4.26979 25.8764 4.71671 25.6396 5.16879L21.0542 13.4355C20.8174 13.866 20.4996 14.1997 20.1009 14.4365C19.7031 14.6733 19.2674 14.7917 18.7937 14.7917H9.17083L7.75 17.375H23.25V19.9584H7.75C6.78125 19.9584 6.04931 19.533 5.55417 18.6822C5.05903 17.8323 5.0375 16.9875 5.48958 16.148L7.23333 12.9834L2.58333 3.16671H0V0.583374H4.19792L5.425 3.16671ZM9.75208 12.2084H18.7937H9.75208Z" fill="#003E6E"/>
</svg>
