<svg width="23" height="22" viewBox="0 0 23 22" fill="none" xmlns="http://www.w3.org/2000/svg">
<path d="M22.4145 10.5128C22.4164 10.5128 22.4179 10.5128 22.4198 10.5128C22.5538 10.5128 22.6815 10.4566 22.7723 10.3582C22.8645 10.2583 22.9101 10.1243 22.8981 9.98884C22.416 4.68518 18.2172 0.484703 12.9133 0.00154773C12.7789 -0.00901829 12.6434 0.0346867 12.5435 0.127379C12.4437 0.219592 12.3879 0.349746 12.3894 0.485664C12.4729 7.53416 13.4027 10.4144 22.4145 10.5128ZM22.4145 11.4868C13.4027 11.5853 12.4734 14.4655 12.3899 21.514C12.3884 21.6499 12.4441 21.78 12.544 21.8722C12.6334 21.9544 12.7501 22 12.8701 22C12.8845 22 12.8994 21.9995 12.9138 21.9981C18.2176 21.5149 22.4164 17.3149 22.8981 12.0108C22.9101 11.8754 22.865 11.7414 22.7723 11.6415C22.6796 11.5416 22.5504 11.4921 22.4145 11.4868ZM10.8545 0.00394916C5.5675 0.501032 1.38216 4.70055 0.902393 9.9898C0.890387 10.1252 0.93553 10.2592 1.02822 10.3591C1.11898 10.4576 1.24721 10.5133 1.38072 10.5133C1.38264 10.5133 1.38456 10.5133 1.38648 10.5133C10.3685 10.41 11.2959 7.53128 11.3804 0.487585C11.3818 0.351667 11.3256 0.221033 11.2258 0.12882C11.1249 0.0366078 10.99 -0.00853796 10.8545 0.00394916ZM1.386 11.4863C1.23664 11.4695 1.11946 11.5406 1.02774 11.6405C0.93553 11.7404 0.889907 11.8744 0.901913 12.0098C1.38168 17.2991 5.5675 21.4986 10.8545 21.9957C10.8694 21.9971 10.8848 21.9976 10.8997 21.9976C11.0197 21.9976 11.1359 21.9525 11.2253 21.8703C11.3252 21.7781 11.3814 21.6475 11.3799 21.5116C11.2954 14.4684 10.3685 11.5896 1.386 11.4863Z" fill="#003E6E"/>
</svg>
