<?xml version="1.0" standalone="no"?>
<!DOCTYPE svg PUBLIC "-//W3C//DTD SVG 20010904//EN"
 "http://www.w3.org/TR/2001/REC-SVG-20010904/DTD/svg10.dtd">
<svg version="1.0" xmlns="http://www.w3.org/2000/svg"
 width="508.000000pt" height="508.000000pt" viewBox="0 0 508.000000 508.000000"
 preserveAspectRatio="xMidYMid meet">
<metadata>
Created by potrace 1.16, written by Peter Selinger 2001-2019
</metadata>
<g transform="translate(0.000000,508.000000) scale(0.100000,-0.100000)"
fill="#000000" stroke="none">
<path d="M1910 2515 l0 -1775 760 0 760 0 0 65 0 65 -140 0 -140 0 0 845 0
845 -555 0 -555 0 0 425 0 425 555 0 555 0 0 440 0 440 -620 0 -620 0 0 -1775z
m1110 1335 l0 -310 -490 0 -490 0 0 310 0 310 490 0 490 0 0 -310z m-560
-1545 l0 -125 65 0 65 0 0 125 0 125 215 0 215 0 0 -780 0 -780 -215 0 -215 0
0 120 0 120 -65 0 -65 0 0 -120 0 -120 -210 0 -210 0 0 780 0 780 210 0 210 0
0 -125z"/>
</g>
</svg>
