<?xml version="1.0" standalone="no"?>
<!DOCTYPE svg PUBLIC "-//W3C//DTD SVG 20010904//EN"
 "http://www.w3.org/TR/2001/REC-SVG-20010904/DTD/svg10.dtd">
<svg version="1.0" xmlns="http://www.w3.org/2000/svg"
 width="508.000000pt" height="508.000000pt" viewBox="0 0 508.000000 508.000000"
 preserveAspectRatio="xMidYMid meet">
<metadata>
Created by potrace 1.16, written by Peter Selinger 2001-2019
</metadata>
<g transform="translate(0.000000,508.000000) scale(0.100000,-0.100000)"
fill="#000000" stroke="none">
<path d="M3125 4291 c-140 -10 -232 -25 -371 -61 -595 -156 -1145 -605 -1432
-1168 -132 -258 -199 -461 -209 -629 -7 -120 7 -174 68 -269 l39 -60 0 -532 0
-531 -57 -34 -58 -33 0 -120 0 -119 890 0 890 0 0 95 0 95 -693 3 -692 2 0 84
0 83 -40 27 -40 26 0 486 c0 526 0 522 -55 558 -37 25 -53 69 -61 175 l-7 91
102 0 101 0 0 120 0 120 694 0 694 0 7 94 c4 52 4 99 1 105 -4 6 -26 19 -49
30 -116 52 -256 251 -292 416 -36 162 -4 371 75 495 91 141 279 244 521 283
133 22 207 27 524 36 300 8 355 17 355 59 0 28 -22 43 -88 59 -66 17 -629 26
-817 14z m-580 -312 c4 -5 -16 -47 -44 -93 -112 -182 -137 -274 -120 -440 19
-190 64 -307 176 -458 38 -51 72 -99 77 -105 6 -10 -118 -13 -604 -13 l-612 0
62 117 c71 136 201 334 293 448 85 105 272 287 368 358 196 144 378 228 404
186z"/>
</g>
</svg>
