<?xml version="1.0" standalone="no"?>
<!DOCTYPE svg PUBLIC "-//W3C//DTD SVG 20010904//EN"
 "http://www.w3.org/TR/2001/REC-SVG-20010904/DTD/svg10.dtd">
<svg version="1.0" xmlns="http://www.w3.org/2000/svg"
 width="509.000000pt" height="508.000000pt" viewBox="0 0 509.000000 508.000000"
 preserveAspectRatio="xMidYMid meet">
<metadata>
Created by potrace 1.16, written by Peter Selinger 2001-2019
</metadata>
<g transform="translate(0.000000,508.000000) scale(0.100000,-0.100000)"
fill="#000000" stroke="none">
<path d="M1555 4475 c-51 -18 -101 -72 -114 -123 -8 -27 -10 -587 -9 -1823 l3
-1784 190 -3 191 -2 65 92 65 93 837 3 837 2 0 -35 0 -35 65 0 65 0 0 135 0
135 -65 0 -65 0 0 -35 0 -35 -868 0 -868 0 -69 -95 -70 -94 -92 -1 -93 0 0
1250 0 1250 33 0 c52 0 69 -19 74 -81 2 -30 9 -66 14 -80 21 -56 -12 -54 984
-57 622 -2 932 0 956 7 51 15 88 48 110 95 17 38 19 77 19 564 0 418 -3 529
-14 555 -17 41 -66 88 -108 104 -25 8 -290 12 -1033 12 -837 0 -1007 -2 -1040
-14z m2029 -146 l26 -20 0 -480 c0 -294 -4 -487 -10 -499 -5 -10 -24 -23 -41
-29 -42 -14 -1712 -16 -1738 -1 -14 7 -20 27 -26 86 -10 110 -26 124 -140 124
l-85 0 0 391 0 391 29 29 29 29 965 0 c960 0 964 0 991 -21z"/>
</g>
</svg>
