<svg version="1.0" xmlns="http://www.w3.org/2000/svg"
 width="494.000000pt" height="493.000000pt" viewBox="0 0 494.000000 493.000000"
 preserveAspectRatio="xMidYMid meet">
<g transform="translate(0.000000,493.000000) scale(0.100000,-0.100000)"
fill="#000000" stroke="none">
<path d="M2934 4419 c-201 -12 -329 -33 -463 -78 -402 -135 -703 -321 -977
-603 -233 -241 -421 -533 -507 -789 -52 -154 -87 -388 -87 -586 l0 -93 40 -26
40 -27 0 -503 0 -504 -40 -26 -40 -27 0 -198 0 -199 1435 0 1435 0 6 26 c11
42 -7 77 -44 88 l-32 9 0 139 0 140 -178 -4 c-214 -4 -232 -10 -232 -83 0 -64
35 -85 144 -85 l79 0 -7 -31 c-3 -17 -6 -35 -6 -40 0 -5 -150 -9 -335 -9
l-335 0 0 645 0 645 445 0 445 0 0 116 0 115 29 25 c39 32 47 59 27 89 -25 38
-66 32 -181 -25 -424 -209 -896 -131 -1231 204 -137 138 -239 297 -275 431
-26 95 -32 321 -11 420 68 316 209 502 487 639 132 66 195 80 355 79 152 0
312 -23 564 -79 99 -22 172 -33 191 -30 66 13 103 92 71 153 -27 53 -89 75
-240 84 -160 10 -383 9 -572 -2z m-886 -474 c2 -12 -13 -70 -32 -130 -120
-384 -76 -722 132 -1001 32 -44 119 -142 193 -219 l134 -140 -95 -6 c-52 -4
-380 -7 -727 -8 -520 -1 -633 1 -633 12 0 31 31 238 46 307 28 131 142 401
229 545 172 284 450 557 655 642 64 27 94 26 98 -2z m642 -2260 l0 -635 -115
0 -115 0 0 -85 0 -85 -703 0 c-533 0 -706 3 -715 12 -36 36 5 120 84 168 l34
22 0 79 c0 70 -2 79 -18 79 -18 0 -19 16 -25 227 -4 124 -7 322 -7 439 l0 213
23 3 c21 3 22 6 19 101 l-4 97 771 0 771 0 0 -635z"/>
</g>
</svg>
