<?xml version="1.0" standalone="no"?>
<!DOCTYPE svg PUBLIC "-//W3C//DTD SVG 20010904//EN"
 "http://www.w3.org/TR/2001/REC-SVG-20010904/DTD/svg10.dtd">
<svg version="1.0" xmlns="http://www.w3.org/2000/svg"
 width="509.000000pt" height="508.000000pt" viewBox="0 0 509.000000 508.000000"
 preserveAspectRatio="xMidYMid meet">
<metadata>
Created by potrace 1.16, written by Peter Selinger 2001-2019
</metadata>
<g transform="translate(0.000000,508.000000) scale(0.100000,-0.100000)"
fill="#000000" stroke="none">
<path d="M1872 2573 c3 -1641 4 -1720 21 -1755 26 -52 71 -70 189 -76 l98 -5
0 67 0 66 -70 0 c-81 0 -110 19 -110 70 l0 30 315 0 315 0 0 -33 c0 -58 -18
-71 -104 -75 l-76 -4 0 -65 0 -66 98 7 c194 14 215 43 216 290 l1 151 -102 3
-103 3 0 144 0 145 410 0 410 0 0 -123 c0 -151 -4 -157 -110 -165 l-71 -5 3
-61 3 -61 85 3 c205 8 221 30 228 334 l5 208 -402 0 -401 0 0 390 0 390 352 0
351 0 94 71 94 70 -3 62 -3 62 -442 3 -441 2 -81 94 -81 94 0 726 0 726 -345
0 -345 0 2 -1717z m558 57 l0 -1530 -215 0 -215 0 0 1530 0 1530 215 0 215 0
0 -1530z"/>
</g>
</svg>
