<?xml version="1.0" standalone="no"?>
<!DOCTYPE svg PUBLIC "-//W3C//DTD SVG 20010904//EN"
 "http://www.w3.org/TR/2001/REC-SVG-20010904/DTD/svg10.dtd">
<svg version="1.0" xmlns="http://www.w3.org/2000/svg"
 width="509.000000pt" height="509.000000pt" viewBox="0 0 509.000000 509.000000"
 preserveAspectRatio="xMidYMid meet">
<metadata>
Created by potrace 1.16, written by Peter Selinger 2001-2019
</metadata>
<g transform="translate(0.000000,509.000000) scale(0.100000,-0.100000)"
fill="#000000" stroke="none">
<path d="M1202 4258 l3 -63 39 -5 c38 -5 36 -6 -150 -112 l-188 -107 -47 42
c-26 23 -51 52 -54 65 -6 20 -13 22 -71 22 l-64 0 2 -1577 3 -1578 63 -3 c62
-3 62 -3 62 25 0 23 11 35 66 71 36 24 71 41 77 39 7 -3 61 -47 121 -98 l109
-92 -27 -20 c-20 -15 -26 -27 -26 -58 l0 -39 248 0 247 0 182 113 c101 61 183
115 183 120 0 11 -84 137 -92 137 -4 0 -90 -49 -190 -110 l-183 -110 -90 0
-90 1 -268 225 -267 225 2 1196 3 1196 375 213 375 214 990 0 990 0 375 -213
375 -213 0 -1199 0 -1199 -265 -223 -265 -223 -90 0 -91 0 -174 106 c-96 59
-180 108 -187 111 -11 4 -111 -133 -102 -141 2 -1 86 -53 186 -114 l181 -112
246 0 246 0 0 39 c0 31 -6 43 -26 58 l-26 19 115 97 c63 53 118 97 121 97 4 0
36 -18 71 -41 56 -35 65 -45 65 -70 l0 -30 63 3 62 3 3 1578 2 1577 -65 0
c-55 0 -65 -3 -65 -17 0 -10 -24 -39 -53 -64 l-53 -47 -187 107 c-185 104
-187 106 -147 109 l40 3 0 65 0 64 -1345 0 -1346 0 3 -62z"/>
</g>
</svg>
