<?xml version="1.0" standalone="no"?>
<!DOCTYPE svg PUBLIC "-//W3C//DTD SVG 20010904//EN"
 "http://www.w3.org/TR/2001/REC-SVG-20010904/DTD/svg10.dtd">
<svg version="1.0" xmlns="http://www.w3.org/2000/svg"
 width="508.000000pt" height="508.000000pt" viewBox="0 0 508.000000 508.000000"
 preserveAspectRatio="xMidYMid meet">
<metadata>
Created by potrace 1.16, written by Peter Selinger 2001-2019
</metadata>
<g transform="translate(0.000000,508.000000) scale(0.100000,-0.100000)"
fill="#000000" stroke="none">
<path d="M3342 4263 l3 -58 107 -3 c129 -3 121 5 171 -163 58 -192 59 -180
-17 -380 -87 -233 -110 -287 -129 -310 -16 -19 -41 -19 -1024 -19 -959 0
-1010 -1 -1049 -19 -50 -23 -98 -80 -113 -135 -9 -30 -11 -344 -9 -1151 l3
-1110 25 -45 c14 -24 45 -58 68 -75 l44 -30 1035 -3 c941 -2 1038 -1 1069 14
48 23 69 57 114 182 21 60 61 167 88 238 67 173 70 198 38 319 -54 202 -78
267 -114 307 -44 48 -86 59 -209 56 l-98 -3 0 -60 0 -60 107 -3 c74 -2 109 -7
117 -16 7 -8 30 -74 52 -147 55 -181 53 -200 -40 -439 -39 -102 -80 -201 -90
-220 l-18 -35 -975 0 -975 0 -36 28 c-21 16 -46 46 -57 67 -20 38 -20 61 -20
1056 0 1017 0 1018 21 1062 13 26 38 54 62 70 l41 27 990 5 c773 4 996 8 1013
18 51 29 75 83 224 497 16 44 29 98 29 121 0 43 -53 249 -89 345 -12 30 -37
70 -57 90 l-35 34 -135 3 -135 4 3 -59z"/>
</g>
</svg>
