<?xml version="1.0" standalone="no"?>
<!DOCTYPE svg PUBLIC "-//W3C//DTD SVG 20010904//EN"
 "http://www.w3.org/TR/2001/REC-SVG-20010904/DTD/svg10.dtd">
<svg version="1.0" xmlns="http://www.w3.org/2000/svg"
 width="509.000000pt" height="508.000000pt" viewBox="0 0 509.000000 508.000000"
 preserveAspectRatio="xMidYMid meet">
<metadata>
Created by potrace 1.16, written by Peter Selinger 2001-2019
</metadata>
<g transform="translate(0.000000,508.000000) scale(0.100000,-0.100000)"
fill="#000000" stroke="none">
<path d="M2480 4204 c-127 -35 -210 -87 -289 -182 -54 -65 -80 -116 -107 -210
-27 -97 -150 -318 -235 -422 -155 -192 -320 -327 -539 -439 -91 -47 -420 -181
-443 -181 -7 0 -41 -14 -76 -30 -75 -36 -183 -139 -223 -216 -56 -105 -58
-122 -58 -685 -1 -477 1 -521 18 -572 42 -127 140 -241 259 -305 130 -69 90
-65 828 -71 l670 -6 133 -73 133 -72 847 2 847 3 3 183 2 182 -100 0 -100 0 0
-95 0 -95 -730 0 -730 0 -139 75 -140 76 -210 -7 -211 -7 6 1054 7 1054 27 30
c58 64 139 174 191 260 49 80 159 312 159 334 0 5 9 30 21 56 42 95 160 179
272 195 169 25 348 -60 408 -192 23 -51 24 -65 27 -305 l4 -253 -74 0 c-118 0
-118 0 -118 -84 0 -43 5 -77 12 -84 8 -8 66 -12 193 -12 l181 0 -3 328 c-2
185 -8 351 -14 381 -6 30 -27 82 -45 117 -67 121 -143 187 -287 247 -65 27
-85 30 -197 33 -91 3 -140 0 -180 -12z m-778 -2176 c-2 -524 -5 -954 -6 -955
-1 -2 -166 -4 -367 -5 l-364 -3 -50 24 c-27 14 -80 54 -116 90 -108 108 -104
83 -104 681 l0 505 30 58 c16 32 43 74 58 93 30 36 111 82 182 104 199 60 464
184 630 294 55 36 102 66 105 66 3 0 3 -429 2 -952z"/>
</g>
</svg>
