<?xml version="1.0" standalone="no"?>
<!DOCTYPE svg PUBLIC "-//W3C//DTD SVG 20010904//EN"
 "http://www.w3.org/TR/2001/REC-SVG-20010904/DTD/svg10.dtd">
<svg version="1.0" xmlns="http://www.w3.org/2000/svg"
 width="508.000000pt" height="508.000000pt" viewBox="0 0 508.000000 508.000000"
 preserveAspectRatio="xMidYMid meet">
<metadata>
Created by potrace 1.16, written by Peter Selinger 2001-2019
</metadata>
<g transform="translate(0.000000,508.000000) scale(0.100000,-0.100000)"
fill="#000000" stroke="none">
<path d="M2197 4283 c-4 -3 -7 -633 -7 -1400 l0 -1393 180 0 180 0 2 -377 3
-378 63 -3 62 -3 0 1594 c0 1342 -2 1601 -14 1633 -8 22 -28 76 -45 122 l-30
82 244 0 245 0 0 -355 0 -355 70 0 70 0 -2 418 -3 417 -506 3 c-278 1 -509 -1
-512 -5z m281 -175 c11 -29 32 -84 46 -122 l26 -68 0 -1149 0 -1149 -115 0
-115 0 0 1270 0 1270 69 0 70 0 19 -52z"/>
</g>
</svg>
