<svg width="15" height="19" viewBox="0 0 15 19" fill="none" xmlns="http://www.w3.org/2000/svg">
<path d="M7.5 0.833374C9.48912 0.833374 11.3968 1.62355 12.8033 3.03007C14.2098 4.4366 15 6.34425 15 8.33337C15 11.4384 12.6333 14.6917 8 18.1667C7.85575 18.2749 7.68031 18.3334 7.5 18.3334C7.31969 18.3334 7.14425 18.2749 7 18.1667C2.36667 14.6917 0 11.4384 0 8.33337C0 6.34425 0.790176 4.4366 2.1967 3.03007C3.60322 1.62355 5.51088 0.833374 7.5 0.833374ZM7.5 2.50004C5.9529 2.50004 4.46917 3.11462 3.37521 4.20858C2.28125 5.30255 1.66667 6.78628 1.66667 8.33337C1.66667 10.5917 3.43167 13.1967 7.04 16.0884L7.5 16.4517L7.96 16.0884C11.5683 13.1967 13.3333 10.5917 13.3333 8.33337C13.3333 6.78628 12.7188 5.30255 11.6248 4.20858C10.5308 3.11462 9.0471 2.50004 7.5 2.50004ZM7.5 6.66671C7.94203 6.66671 8.36595 6.8423 8.67851 7.15486C8.99107 7.46742 9.16667 7.89135 9.16667 8.33337C9.16667 8.7754 8.99107 9.19932 8.67851 9.51188C8.36595 9.82445 7.94203 10 7.5 10C7.05797 10 6.63405 9.82445 6.32149 9.51188C6.00893 9.19932 5.83333 8.7754 5.83333 8.33337C5.83333 7.89135 6.00893 7.46742 6.32149 7.15486C6.63405 6.8423 7.05797 6.66671 7.5 6.66671Z" fill="#3A597F"/>
</svg>
