<svg width="19" height="22" viewBox="0 0 19 22" fill="none" xmlns="http://www.w3.org/2000/svg">
<path d="M3.125 1C2.56141 1 2.02091 1.22388 1.6224 1.6224C1.22388 2.02091 1 2.56141 1 3.125V19.0625C1 20.2419 1.94562 21.1875 3.125 21.1875H5.25H13.75H15.875C17.0544 21.1875 18 20.2419 18 19.0625V3.125C18 2.56141 17.7761 2.02091 17.3776 1.6224C16.9791 1.22388 16.4386 1 15.875 1H3.125ZM3.125 3.125H8.4375V19.0625H3.125V3.125ZM10.5625 3.125H15.875V19.0625H10.5625V3.125ZM5.25 9.5V12.6875H7.375V9.5H5.25ZM11.625 9.5V12.6875H13.75V9.5H11.625Z" fill="black" stroke="white"/>
</svg>
