<svg width="22" height="21" viewBox="0 0 22 21" fill="none" xmlns="http://www.w3.org/2000/svg">
<path d="M20.904 20.3192V10.006C20.904 9.75994 20.7027 9.58093 20.4789 9.58093H1.32909C1.08299 9.58093 0.903992 9.78224 0.903992 10.006V20.3416C0.903992 20.5876 1.1053 20.7666 1.32909 20.7666H20.4565C20.7026 20.7665 20.904 20.5653 20.904 20.3192ZM8.37608 16.8741V10.4312H13.7676V18.7309H8.37608V16.8741ZM1.77655 10.4312H7.5036V11.8406H1.77655V10.4312ZM1.77655 12.7131H7.5036V14.1225L1.77655 14.1223V12.7131ZM1.77655 14.9948H7.5036V16.4043H1.77655V14.9948ZM1.77655 17.2767H7.5036V18.7309H1.77655V17.2767ZM20.0315 19.8942H1.77655V19.6033H20.0539V19.8942H20.0315ZM20.0315 18.731H14.64V10.4312H20.0315V18.731Z" fill="black" stroke="white" stroke-width="0.2"/>
<path d="M20.479 0.587891H1.32915C1.08305 0.587891 0.904053 0.789196 0.904053 1.01298V4.88317C0.904053 5.12927 1.10536 5.30827 1.32915 5.30827H20.4566C20.7027 5.30827 20.8817 5.10696 20.8817 4.88317V1.03532C20.904 0.789224 20.7027 0.587931 20.4789 0.587931L20.479 0.587891ZM13.7676 4.45808H1.77657V1.46037H13.7899V4.45808H13.7676ZM20.0315 4.45808H14.6401V1.46037H20.0315V4.45808Z" fill="black" stroke="white" stroke-width="0.2"/>
<path d="M15.0651 12.0197H15.9375V14.033H15.0651V12.0197Z" fill="black" stroke="white" stroke-width="0.2"/>
<path d="M12.47 12.0197H13.3425V14.033H12.47V12.0197Z" fill="black" stroke="white" stroke-width="0.2"/>
</svg>
