<svg width="20" height="25" viewBox="0 0 20 25" fill="none" xmlns="http://www.w3.org/2000/svg">
<path d="M18.8 18.0968V16.7941L19.1794 15.6557C19.193 15.615 19.2 15.5723 19.2 15.5293V11.5293C19.2 11.3084 19.0208 11.1293 18.8 11.1293H16.8C16.5791 11.1293 16.4 11.3084 16.4 11.5293V15.5293C16.4 15.5723 16.4069 15.615 16.4205 15.6557L16.8 16.7941V17.9293H14.9986C14.8641 17.2207 14.6637 16.5261 14.4 15.8548V7.52933C14.4 3.55914 11.1702 0.329346 7.19998 0.329346C3.2298 0.329346 0 3.55914 0 7.52933V10.3293C0 10.5502 0.179108 10.7293 0.399999 10.7293H2.79999C3.02088 10.7293 3.19999 10.5502 3.19999 10.3293V7.52933C3.19999 6.10021 3.96232 4.77971 5.19999 4.06525C6.43765 3.35078 7.96231 3.35078 9.19998 4.06525C10.4376 4.77971 11.2 6.10026 11.2 7.52933V15.8548C10.9362 16.5261 10.7359 17.2207 10.6014 17.9293H8.79998V16.7941L9.17945 15.6557C9.19302 15.615 9.19998 15.5723 9.19998 15.5293V11.5293C9.19998 11.3084 9.02087 11.1293 8.79998 11.1293H6.79999C6.5791 11.1293 6.39999 11.3084 6.39999 11.5293V15.5293C6.39999 15.5723 6.40695 15.615 6.42052 15.6557L6.79999 16.7941V18.0968C6.23409 18.3437 5.81412 18.838 5.6618 19.4362C5.50948 20.0344 5.64215 20.6696 6.02108 21.157C6.39983 21.6443 6.98268 21.9294 7.6 21.9293H10.4V23.9293C10.4 24.1502 10.5791 24.3293 10.8 24.3293H14.8C15.0209 24.3293 15.2 24.1502 15.2 23.9293V21.9293H18C18.6173 21.9295 19.2002 21.6443 19.5789 21.157C19.9578 20.6696 20.0905 20.0344 19.9382 19.4362C19.7859 18.838 19.3658 18.3438 18.8 18.0968H18.8ZM7.19998 2.72948C5.9273 2.73091 4.70732 3.23713 3.80749 4.13697C2.90765 5.03681 2.40141 6.25678 2.39999 7.52947V9.92946H0.799996V7.52947C0.799996 5.24303 2.01983 3.13021 3.99999 1.98708C5.98015 0.843676 8.41982 0.843676 10.4 1.98708C12.3801 3.1303 13.6 5.24316 13.6 7.52947V15.5295H12V7.52947C11.9985 6.25678 11.4923 5.03681 10.5925 4.13697C9.69264 3.23713 8.47267 2.73089 7.19998 2.72948ZM7.57945 16.6028L7.19998 15.4644V11.9293H8.39998V15.4644L8.02052 16.6028C8.00694 16.6435 7.99998 16.6862 7.99998 16.7292V17.9292H7.59998V16.7292C7.59998 16.6862 7.59302 16.6435 7.57944 16.6028H7.57945ZM6.39997 19.9293C6.40033 19.611 6.52694 19.306 6.75176 19.081C6.97676 18.8562 7.28177 18.7296 7.59999 18.7292H7.99999V21.1292H7.59999C7.28177 21.1289 6.97676 21.0023 6.75176 20.7775C6.52694 20.5525 6.40033 20.2474 6.39997 19.9292V19.9293ZM8.79997 21.1293V18.7293H10.4789C10.4264 19.1787 10.4 19.6309 10.4 20.0834V21.1293H8.79997ZM14.4 23.5292H11.2V20.0834C11.1989 18.8018 11.4273 17.5303 11.8742 16.3293H13.7257C14.1726 17.5303 14.401 18.8018 14.4 20.0834V23.5292ZM17.2 11.9293H18.4V15.4644L18.0205 16.6028C18.0069 16.6435 17.9999 16.6862 17.9999 16.7292V17.9292H17.5999V16.7292C17.5999 16.6862 17.593 16.6435 17.5794 16.6028L17.1999 15.4644L17.2 11.9293ZM15.121 18.7293H16.8V21.1293H15.2V20.0834C15.2 19.6309 15.1735 19.1787 15.121 18.7293H15.121ZM18 21.1293H17.6V18.7293H18C18.4287 18.7293 18.8248 18.958 19.0392 19.3293C19.2535 19.7005 19.2535 20.158 19.0392 20.5293C18.8248 20.9005 18.4287 21.1293 18 21.1293Z" fill="black"/>
</svg>
