<svg width="26" height="26" viewBox="0 0 26 26" fill="none" xmlns="http://www.w3.org/2000/svg">
<g clip-path="url(#clip0_5_3)">
<path fill-rule="evenodd" clip-rule="evenodd" d="M13.492 2.60742L12.2199 3.04854L10.6887 3.9078L9.15712 4.76739L7.72331 6.25702L6.28915 7.74664L5.54528 9.14331L4.80106 10.54L4.48271 12.4138L4.16401 14.2879L4.50602 14.6154L4.84803 14.9429V17.6416V20.3403L4.47297 20.6995L4.0979 21.0587L4.21202 22.0155L4.32614 22.9724L12.977 23.0617L21.6279 23.1507L21.4143 22.6179L21.2006 22.0848V21.4458V20.8068H19.9829H18.7652V21.2822V21.7573L19.374 21.9099L19.9829 22.0622L17.9823 22.1008L15.9817 22.1395V18.4746V14.8096H18.5505H21.1196L21.3033 13.8934L21.487 12.9772L21.3861 12.8789L21.2852 12.7806L19.6656 13.1711L18.046 13.5616L16.6445 13.3816L15.2434 13.2017L14.1026 12.4531L12.9617 11.7044L12.2102 10.6543L11.4587 9.6041V7.92489V6.24569L12.2415 5.14721L13.0243 4.04907L14.2421 3.40837L15.4598 2.76767L17.5474 2.97191L19.635 3.17581L20.5048 3.24545L21.3746 3.31508V2.81532V2.31556L18.0693 2.24092L14.764 2.16663L13.492 2.60742ZM190.526 2.70437L190.294 2.92627V13.1994V23.4722H191.295H192.296L192.742 22.9581L193.187 22.4437L198.438 22.4933L203.689 22.5426L203.789 21.9246L203.889 21.3065L198.396 21.4065L192.903 21.5064L192.517 21.9895L192.131 22.4727H191.56H190.99V15.6426V8.81247H191.337H191.685V9.31223V9.812H197.357H203.028L203.445 9.41219L203.863 9.01238V6.27434V3.53631L203.652 3.00923L203.44 2.48214H197.099H190.757L190.526 2.70437ZM202.819 6.14707V9.14565H197.6H192.381V8.61457V8.08382L191.685 7.90957L190.99 7.73532V5.66397V3.59262L191.222 3.37072L191.453 3.14849H197.136H202.819V6.14707ZM55.9935 13.4769V23.4722H60.3714H64.7498L64.6064 23.0557L64.4631 22.6392L63.7077 22.5326L62.952 22.4263V17.7849V13.1437H59.8207H56.6893V10.8115V8.4793H59.8207H62.952V5.98048V3.48167H59.4727H55.9935V13.4769ZM106.195 3.96511L104.728 4.4039L103.185 5.27015L101.641 6.13641L100.23 7.67101L98.8196 9.20595L97.9511 10.8745L97.0827 12.5434L97.2929 16.9963L97.503 21.4488L97.0632 21.9566L96.6231 22.4643L96.8252 22.9681L97.027 23.4722H102.083H107.139V22.8058V22.1395H103.178H99.2176L99.0078 21.3898L98.798 20.6402L98.7935 18.0777L98.7886 15.5153L98.4407 15.3094L98.0927 15.1035V14.4568V13.8101H98.6146H99.1365V13.1437V12.4774H103.109H107.081L107.233 12.0609L107.385 11.6445L106.392 10.55L105.399 9.4555V7.95188V6.44859L106.297 5.65197L107.194 4.85568L108.123 4.68876L109.052 4.52184L111.404 4.30794L113.756 4.09438L113.558 3.78786L113.361 3.48167L110.511 3.50399L107.661 3.52631L106.195 3.96511ZM149.122 3.7039L148.89 3.92579V11.5335V19.1409H149.934H150.978V21.3065V23.4722H151.341H151.704L151.602 13.7948L151.5 4.11737L152.717 4.21599L153.935 4.31461L154.04 6.23036L154.144 8.14612H154.474H154.805V5.81389V3.48167H152.08H149.354L149.122 3.7039ZM238.656 13.2747V23.0677L239.206 23.2699L239.757 23.4722H240.076H240.395V22.9967V22.5216L239.786 22.369L239.178 22.2168L241.091 22.1888L243.005 22.1608L242.396 22.6033L241.787 23.0457V23.2589V23.4722H242.413H243.04L243.457 23.0724L243.875 22.6726V21.8749V21.0776L243.161 20.8987L242.446 20.7198L242.552 20.0138L242.657 19.3075L244.836 19.2082L247.015 19.1089L247.241 19.673L247.467 20.2367L246.888 20.6419L246.31 21.0467V21.2832V21.5194L247.093 21.4132L247.876 21.3065L247.983 19.8905L248.09 18.4746H245.808H243.527V16.3089V14.1433H245.463H247.399L248.073 13.7984L248.746 13.4536V13.1321V12.8106H246.19H243.635L243.059 12.2012L242.483 11.5922V7.53674V3.48167H240.569H238.656V13.2747ZM280.52 3.95045L280.708 4.41889L279.688 4.8237L278.667 5.22851L278.2 4.85768L277.734 4.48686L277.505 4.70609L277.276 4.92532V13.5326V22.1395H277.777H278.278L278.489 21.813L278.7 21.4868L279.379 21.8933L280.059 22.2997V22.7195V23.139H281.484H282.909L283.92 22.5673L284.93 21.9959V21.754V21.5124L284.625 21.3315L284.319 21.1509L282.931 21.8793L281.542 22.6076L279.757 21.1763L277.972 19.7453V13.5905V7.43612L278.311 6.82775L278.651 6.21937L280.568 5.18353L282.484 4.14802L288.317 4.16101L294.15 4.17401L296.064 5.26715L297.977 6.35997L298.071 13.2047L298.165 20.0495L296.54 21.3245L294.915 22.5999L293.533 21.8753L292.152 21.1509L291.846 21.3315L291.541 21.5124V21.754V21.9959L292.551 22.5673L293.562 23.139H294.987H296.412V22.7195V22.2997L297.092 21.8933L297.771 21.4868L297.982 21.813L298.192 22.1395H298.694H299.195V13.5326V4.92532L298.966 4.70609L298.737 4.48686L298.271 4.85768L297.804 5.22851L296.783 4.8237L295.763 4.41889L295.95 3.95045L296.138 3.48167H288.235H280.333L280.52 3.95045ZM384.438 3.81484V4.14802H385.127H385.816L386.05 5.04293L386.285 5.93784L385.796 7.29186L385.307 8.64588L379.118 8.81247L372.929 8.97906L372.6 9.47882L372.271 9.97859L372.265 16.159L372.26 22.3394L372.678 22.7392L373.095 23.139H379.415H385.735L386.304 21.712L386.873 20.2847V19.568V18.851L386.534 17.9964L386.195 17.1419H385.316H384.438V17.475V17.8082H385.127H385.816L386.05 18.7031L386.285 19.598L385.796 20.952L385.307 22.3061H379.393H373.478L373.383 16.1666L373.288 10.0276L373.731 9.75836L374.174 9.48915L379.964 9.48382L385.754 9.47882L386.313 8.13946L386.873 6.80009V5.78524V4.77072L386.513 4.12603L386.153 3.48167H385.295H384.438V3.81484ZM333.092 4.28695L332.022 4.73341L331.123 6.55121L330.224 8.36902L328.611 9.72904L326.998 11.0887L325.217 11.6998L323.436 12.3108L322.781 13.3103L322.126 14.3099L322.229 17.5876L322.332 20.8654L323.309 21.669L324.285 22.4727L328.354 22.4843L332.422 22.4963L333.292 22.9724L334.162 23.4485L338.946 23.4605L343.73 23.4722V22.3061V21.14H343.208H342.686V21.8063V22.4727L338.598 22.461L334.51 22.449L333.64 21.9729L332.77 21.4968L331.465 21.4848L330.161 21.4731V15.7868V10.1009L330.996 9.04003L331.832 7.97953L332.359 6.75678L332.885 5.53436L333.588 5.1742L334.29 4.81437L335.162 5.13155L336.033 5.44873L336.402 6.10909L336.771 6.76977V7.95754V9.14565H336.086H335.402L335.602 9.64541L335.802 10.1452H336.809H337.815V8.33437V6.52356L337.482 5.68496L337.149 4.84635L336.108 4.3306L335.066 3.81484L334.614 3.82784L334.162 3.84083L333.092 4.28695ZM62.1873 6.06378L62.2927 7.81295H59.4908H56.6893V5.96649V4.12003L59.3858 4.21732L62.0822 4.31461L62.1873 6.06378ZM150.978 11.8747V18.4746H150.282H149.586V11.5335V4.59214L149.838 4.35159L150.089 4.1107L150.534 4.69276L150.978 5.27482V11.8747ZM241.787 12.8106V21.4731H240.569H239.352V12.8106V4.14802H240.569H241.787V12.8106ZM10.8581 6.78377L10.6717 8.75317L10.8825 9.55678L11.093 10.3604L12.3354 11.9187L13.5782 13.4769H9.3871H5.19596L5.19631 12.5607L5.19666 11.6445L6.22096 9.64541L7.24526 7.64636L7.87327 6.97701L8.50128 6.30799L9.50505 5.56101L10.5088 4.81437H10.7767H11.0446L10.8581 6.78377ZM104.858 6.06378L104.591 6.64683L104.438 7.88524L104.284 9.12366L105.044 10.3008L105.804 11.4779H102.274H98.7441L99.5492 10.1035L100.354 8.72918L102.209 7.10495L104.064 5.48072H104.595H105.126L104.858 6.06378ZM329.117 16.3089V21.4731H326.97H324.822L324.186 20.9217L323.55 20.3703V17.1309V13.8917L324.074 13.4753L324.598 13.0588L326.597 12.1272L328.595 11.1957L328.856 11.1704L329.117 11.1447V16.3089ZM59.0622 14.7263L59.1732 15.476H59.4971H59.8207V14.622V13.7678L60.9514 13.8724L62.0822 13.9767L62.1796 18.2247L62.277 22.4727H61.0488H59.8207V21.8063V21.14H59.4727H59.1248V21.8063V22.4727H57.9071H56.6893V18.1204V13.7678L57.8201 13.8724L58.9508 13.9767L59.0622 14.7263ZM14.9379 17.8082V21.4731H14.2421H13.5462V21.9729V22.4727H9.3711H5.19596V22.1591V21.8456L5.51675 21.6557L5.83754 21.4658L5.64374 19.0126L5.44995 16.5591L5.68654 15.3514L5.92348 14.1433H10.4305H14.9379V17.8082Z" fill="black" stroke="black" stroke-width="0.1"/>
</g>
<defs>
<clipPath id="clip0_5_3">
<rect width="26" height="26" rx="13" fill="white"/>
</clipPath>
</defs>
</svg>
