<svg width="20" height="20" viewBox="0 0 20 20" fill="none" xmlns="http://www.w3.org/2000/svg">
<path d="M15.9743 17.2095C15.6892 17.2095 15.4259 17.1016 15.223 16.8986L11.4015 13.0771C11.3151 12.9907 11.3151 12.8568 11.4015 12.7705L12.5934 11.5786C12.6797 11.4923 12.8136 11.4923 12.9 11.5786L16.7214 15.4001C16.92 15.5987 17.0324 15.8665 17.0324 16.1514C17.0324 16.4365 16.9245 16.6998 16.7214 16.9027C16.5227 17.0972 16.2594 17.2095 15.9743 17.2095L15.9743 17.2095ZM11.8592 12.9258L15.5298 16.5964C15.6463 16.7129 15.8062 16.7777 15.9745 16.7777C16.1428 16.7777 16.3026 16.7129 16.4192 16.5964C16.5358 16.4798 16.6006 16.32 16.6006 16.1516C16.6006 15.9833 16.5358 15.8235 16.4192 15.7069L12.7487 12.0364L11.8592 12.9258Z" fill="black" stroke="black" stroke-width="0.4"/>
<path d="M9.54618 12.6947C9.49007 12.6947 9.43395 12.6731 9.39505 12.6299L8.12119 11.356C8.08229 11.3171 8.0564 11.261 8.0564 11.2049C8.0564 11.1488 8.07795 11.0927 8.12119 11.0538L8.43192 8.7131L10.7726 8.35031C10.8115 8.31141 10.8676 8.28552 10.9237 8.28552C10.9798 8.28552 11.036 8.30707 11.0749 8.35031L12.3487 9.62417C12.4351 9.71052 12.4351 9.84444 12.3487 9.93078L12.55 9.91166L12.956 11.6821C12.9732 11.7556 12.9516 11.8289 12.8998 11.8851L11.708 13.0769C11.6562 13.1287 11.5784 13.1504 11.5051 13.133L9.73459 12.7271L9.70166 12.6299C9.65828 12.6731 9.60217 12.6948 9.54605 12.6948L9.54618 12.6947ZM8.57459 11.2049L9.54184 12.1721L9.50999 12.3341C9.56177 12.2823 9.63957 12.2607 9.7129 12.278L11.4834 12.684L12.5067 11.6606L12.1008 9.89011C12.0836 9.81665 12.1051 9.74332 12.1569 9.6872L11.8908 9.7711L10.9237 8.80357L8.73419 9.01529L8.57459 11.2049Z" fill="black" stroke="black" stroke-width="0.4"/>
<path d="M19.4071 19.2994H0.838973C0.718065 19.2994 0.623047 19.2044 0.623047 19.0835V0.515364C0.623047 0.394457 0.718065 0.299438 0.838973 0.299438H19.4071C19.528 0.299438 19.623 0.394457 19.623 0.515364V19.0835C19.623 19.2044 19.528 19.2994 19.4071 19.2994ZM1.0548 18.8676H19.1913L19.1912 0.731463H1.05502L1.0548 18.8676Z" fill="black" stroke="black" stroke-width="0.4"/>
<path d="M15.3396 7.19547C15.2446 7.19547 15.1626 7.13501 15.1324 7.04433L14.5839 5.25227L12.7919 4.70384C12.7012 4.67795 12.6407 4.5916 12.6407 4.49659C12.6407 4.40157 12.7012 4.31956 12.7919 4.28934L14.5839 3.74091L15.1324 1.95308C15.1583 1.86239 15.2446 1.80194 15.3396 1.80194C15.4346 1.80194 15.5167 1.86239 15.5469 1.95308L16.0953 3.74514L17.8874 4.29357C17.9781 4.31946 18.0385 4.4058 18.0385 4.50082C18.0385 4.59584 17.9781 4.67784 17.8874 4.70807L16.0953 5.2565L15.5469 7.04856C15.5167 7.13504 15.4346 7.1955 15.3396 7.1955V7.19547ZM13.5908 4.49663L14.8173 4.87236C14.8864 4.89391 14.9382 4.94582 14.9597 5.01482L15.3354 6.24124L15.7112 5.01482C15.7327 4.94569 15.7846 4.89391 15.8536 4.87236L17.0801 4.49663L15.8536 4.1209C15.7845 4.09935 15.7327 4.04743 15.7112 3.97844L15.3354 2.75201L14.9597 3.97844C14.9382 4.04757 14.8863 4.09935 14.8173 4.1209L13.5908 4.49663Z" fill="black" stroke="black" stroke-width="0.4"/>
<path d="M3.66322 6.17189C3.6071 6.17189 3.55099 6.15034 3.51208 6.1071C3.42574 6.02075 3.42574 5.88683 3.51208 5.80049L6.36641 2.94617C6.45275 2.85982 6.58667 2.85982 6.67301 2.94617C6.75936 3.03251 6.75936 3.16643 6.67301 3.25277L3.81869 6.1071C3.77111 6.15034 3.71499 6.17189 3.66321 6.17189H3.66322Z" fill="black" stroke="black" stroke-width="0.4"/>
<path d="M4.26765 8.39155C4.21153 8.39155 4.15542 8.37 4.11652 8.32676C4.03017 8.24042 4.03017 8.1065 4.11652 8.02016L6.97084 5.16583C7.05719 5.07949 7.19111 5.07949 7.27745 5.16583C7.36379 5.25217 7.36379 5.38609 7.27745 5.47243L4.42312 8.32676C4.37988 8.37 4.32376 8.39155 4.26765 8.39155H4.26765Z" fill="black" stroke="black" stroke-width="0.4"/>
</svg>
