<svg width="18" height="18" viewBox="0 0 18 18" fill="none" xmlns="http://www.w3.org/2000/svg">
<path d="M16.3125 9C16.3129 7.78361 16.0098 6.58634 15.4308 5.51661C14.8517 4.44689 14.015 3.53852 12.9963 2.87376C11.9776 2.209 10.8092 1.80886 9.59685 1.70958C8.38451 1.6103 7.16656 1.81501 6.0533 2.30518C4.94004 2.79534 3.96664 3.55548 3.22126 4.51674C2.47588 5.478 1.98207 6.61002 1.78455 7.81027C1.58703 9.01051 1.69204 10.2411 2.09008 11.3905C2.48811 12.5399 3.16659 13.5719 4.06406 14.393L4.15547 14.4773C5.49229 15.6597 7.21534 16.3123 9 16.3123C10.7847 16.3123 12.5077 15.6597 13.8445 14.4773L13.9359 14.393C14.6856 13.7089 15.2841 12.8759 15.6934 11.9473C16.1026 11.0187 16.3135 10.0148 16.3125 9ZM2.8125 9C2.81213 7.99787 3.05518 7.01064 3.52074 6.12321C3.9863 5.23578 4.66044 4.47471 5.48519 3.90544C6.30994 3.33618 7.26063 2.97576 8.25548 2.85518C9.25034 2.73459 10.2596 2.85745 11.1965 3.2132C12.1333 3.56894 12.9698 4.14692 13.6339 4.89742C14.298 5.64793 14.7698 6.54851 15.0089 7.52172C15.2479 8.49492 15.247 9.51163 15.0062 10.4844C14.7655 11.4572 14.292 12.3569 13.6266 13.1063C12.9994 12.1967 12.1158 11.4943 11.0883 11.0883C11.6394 10.6542 12.0416 10.0592 12.2388 9.38595C12.4361 8.71271 12.4187 7.99474 12.189 7.33187C11.9593 6.669 11.5287 6.09419 10.9572 5.68737C10.3856 5.28054 9.70154 5.06193 9 5.06193C8.29846 5.06193 7.61436 5.28054 7.04283 5.68737C6.47129 6.09419 6.04074 6.669 5.81104 7.33187C5.58134 7.99474 5.56391 8.71271 5.76118 9.38595C5.95844 10.0592 6.3606 10.6542 6.91172 11.0883C5.88418 11.4943 5.00062 12.1967 4.37344 13.1063C3.36612 11.9759 2.81043 10.5141 2.8125 9ZM6.75 8.4375C6.75 7.9925 6.88196 7.55748 7.12919 7.18747C7.37643 6.81746 7.72783 6.52907 8.13896 6.35878C8.5501 6.18848 9.0025 6.14392 9.43895 6.23074C9.87541 6.31755 10.2763 6.53185 10.591 6.84651C10.9057 7.16118 11.12 7.56209 11.2068 7.99855C11.2936 8.43501 11.249 8.88741 11.0787 9.29854C10.9084 9.70968 10.62 10.0611 10.25 10.3083C9.88002 10.5555 9.44501 10.6875 9 10.6875C8.40383 10.6856 7.83261 10.448 7.41106 10.0264C6.9895 9.60489 6.75186 9.03367 6.75 8.4375ZM5.21016 13.8867C5.61721 13.2509 6.17768 12.7277 6.83997 12.3654C7.50225 12.003 8.24506 11.8131 9 11.8131C9.75494 11.8131 10.4978 12.003 11.16 12.3654C11.8223 12.7277 12.3828 13.2509 12.7898 13.8867C11.7063 14.7294 10.3727 15.1869 9 15.1869C7.6273 15.1869 6.29375 14.7294 5.21016 13.8867Z" fill="#003E6E"/>
</svg>
