<svg width="17" height="18" viewBox="0 0 17 18" fill="none" xmlns="http://www.w3.org/2000/svg">
<path d="M8.33333 0.666626C3.75 0.666626 0 4.41663 0 8.99996C0 13.5833 3.75 17.3333 8.33333 17.3333C12.9167 17.3333 16.6667 13.5833 16.6667 8.99996C16.6667 4.41663 12.9167 0.666626 8.33333 0.666626ZM5.69167 4.87496C6.50833 4.87496 7.16667 5.53329 7.16667 6.35829C7.16667 7.17496 6.50833 7.83329 5.69167 7.83329C4.86667 7.83329 4.20833 7.17496 4.20833 6.35829C4.20833 5.53329 4.86667 4.87496 5.69167 4.87496ZM11.0167 13.1666C10.2 13.1666 9.54167 12.5 9.54167 11.6833C9.54167 10.8666 10.2 10.2083 11.0167 10.2083C11.8333 10.2083 12.5 10.8666 12.5 11.6833C12.5 12.5 11.8333 13.1666 11.0167 13.1666ZM5.41667 13.1916L4.16667 11.9416L11.275 4.83329L12.525 6.08329L5.41667 13.1916Z" fill="#FF5A82"/>
</svg>
