<svg width="16" height="16" viewBox="0 0 16 16" fill="none" xmlns="http://www.w3.org/2000/svg">
<path d="M13.2803 12.1089L15.4138 14.2418C15.7375 14.5654 15.7376 15.0902 15.4139 15.4139C15.0902 15.7376 14.5654 15.7375 14.2418 15.4138L12.1089 13.2803C10.7891 14.3384 9.14736 14.9139 7.45573 14.9115C3.34017 14.9115 0 11.5713 0 7.45573C0 3.34017 3.34017 0 7.45573 0C11.5713 0 14.9115 3.34017 14.9115 7.45573C14.9139 9.14736 14.3384 10.7891 13.2803 12.1089ZM11.6185 11.4943C12.6699 10.4131 13.257 8.9638 13.2546 7.45573C13.2546 4.25142 10.6592 1.65683 7.45573 1.65683C4.25142 1.65683 1.65683 4.25142 1.65683 7.45573C1.65683 10.6592 4.25142 13.2546 7.45573 13.2546C8.9638 13.257 10.4131 12.6699 11.4943 11.6185L11.6185 11.4943Z" fill="#003E6E"/>
</svg>
