<svg width="23" height="22" viewBox="0 0 23 22" fill="none" xmlns="http://www.w3.org/2000/svg">
<path d="M11.9 0C5.82802 0 0.900024 4.928 0.900024 11C0.900024 17.072 5.82802 22 11.9 22C17.972 22 22.9 17.072 22.9 11C22.9 4.928 17.972 0 11.9 0ZM17.004 7.48C16.839 9.218 16.124 13.442 15.761 15.389C15.607 16.214 15.299 16.489 15.013 16.522C14.375 16.577 13.891 16.104 13.275 15.697C12.307 15.059 11.757 14.663 10.822 14.047C9.73303 13.332 10.437 12.936 11.064 12.298C11.229 12.133 14.045 9.57 14.1 9.339C14.1077 9.30401 14.1066 9.26769 14.0971 9.23318C14.0875 9.19868 14.0696 9.16704 14.045 9.141C13.979 9.086 13.891 9.108 13.814 9.119C13.715 9.141 12.175 10.164 9.17202 12.188C8.73203 12.485 8.33602 12.639 7.98402 12.628C7.58802 12.617 6.84002 12.408 6.27902 12.221C5.58602 12.001 5.04702 11.88 5.09102 11.495C5.11302 11.297 5.38802 11.099 5.90502 10.89C9.11702 9.493 11.251 8.569 12.318 8.129C15.376 6.853 16.003 6.633 16.421 6.633C16.509 6.633 16.718 6.655 16.85 6.765C16.96 6.853 16.993 6.974 17.004 7.062C16.993 7.128 17.015 7.326 17.004 7.48Z" fill="#003E6E"/>
</svg>
