<svg width="23" height="22" viewBox="0 0 23 22" fill="none" xmlns="http://www.w3.org/2000/svg">
<path d="M11.9 0C5.82482 0 0.900024 4.92479 0.900024 11C0.900024 17.0752 5.82482 22 11.9 22C17.9752 22 22.9 17.0752 22.9 11C22.9 4.92479 17.9752 0 11.9 0ZM16.1304 12.4105C16.1304 12.4105 17.1033 13.3707 17.3427 13.8165C17.3496 13.8256 17.353 13.8348 17.3553 13.8394C17.4527 14.0032 17.4756 14.1304 17.4275 14.2255C17.3473 14.3836 17.0723 14.4616 16.9784 14.4684H15.2596C15.1404 14.4684 14.8906 14.4375 14.5881 14.229C14.3555 14.0662 14.1264 13.7993 13.9029 13.5392C13.5695 13.1519 13.2808 12.8173 12.9897 12.8173C12.9527 12.8172 12.916 12.823 12.8809 12.8345C12.6609 12.9055 12.379 13.2195 12.379 14.0559C12.379 14.3172 12.1727 14.4673 12.0272 14.4673H11.24C10.9719 14.4673 9.57513 14.3733 8.33763 13.0682C6.82284 11.4698 5.45929 8.26375 5.44784 8.23396C5.3619 8.02656 5.5395 7.91542 5.73315 7.91542H7.46909C7.70054 7.91542 7.77617 8.05635 7.82888 8.18125C7.89075 8.32677 8.11763 8.90542 8.49002 9.55625C9.09388 10.6173 9.46398 11.0481 9.76075 11.0481C9.8164 11.0475 9.87106 11.0333 9.92002 11.0069C10.3073 10.7915 10.2351 9.41073 10.2179 9.12427C10.2179 9.07042 10.2168 8.50667 10.0186 8.23625C9.87648 8.04031 9.63471 7.96583 9.48804 7.93833C9.54741 7.85642 9.62562 7.79 9.71607 7.74469C9.9819 7.61177 10.4609 7.59229 10.9364 7.59229H11.2011C11.7167 7.59917 11.8496 7.6324 12.0364 7.67937C12.4145 7.7699 12.4225 8.01396 12.3893 8.84927C12.379 9.08646 12.3687 9.35458 12.3687 9.67083C12.3687 9.73958 12.3652 9.81292 12.3652 9.89083C12.3538 10.3159 12.34 10.7983 12.6402 10.9966C12.6794 11.0211 12.7246 11.0342 12.7709 11.0344C12.8751 11.0344 13.1891 11.0344 14.0393 9.57573C14.3015 9.10623 14.5294 8.61836 14.7211 8.11594C14.7383 8.08615 14.7887 7.99448 14.8483 7.95896C14.8922 7.93654 14.941 7.92514 14.9903 7.92573H17.0311C17.2534 7.92573 17.4058 7.95896 17.4344 8.0449C17.4848 8.18125 17.4252 8.59719 16.4937 9.85875L16.0777 10.4076C15.2333 11.5145 15.2333 11.5706 16.1304 12.4105Z" fill="#003E6E"/>
</svg>
