<svg width="20" height="20" viewBox="0 0 20 20" fill="none" xmlns="http://www.w3.org/2000/svg">
<path d="M9.73289 0.0700684C4.41239 0.0700684 0.103027 4.37943 0.103027 9.69993C0.103027 11.8185 0.777117 13.7685 1.9327 15.3575L0.608595 18.8483L4.43646 17.7409C5.95317 18.752 7.78284 19.3298 9.73289 19.3298C15.0534 19.3298 19.3627 15.0204 19.3627 9.69993C19.3627 4.37943 15.0534 0.0700684 9.73289 0.0700684ZM14.8608 13.6963L13.8256 14.7075C12.7422 15.7908 9.87733 14.6112 7.3495 12.0592C4.82166 9.5314 3.69015 6.66652 4.70128 5.60724L5.7365 4.57203C6.12169 4.18683 6.7717 4.18683 7.18097 4.57203L8.69768 6.08873C9.22732 6.61837 9.01065 7.53321 8.31248 7.74988C7.83099 7.9184 7.49394 8.44805 7.66247 8.92954C7.92729 10.061 9.39584 11.4574 10.4792 11.7222C10.9607 11.8426 11.5144 11.5537 11.6589 11.0722C11.8755 10.374 12.7904 10.1573 13.32 10.687L14.8367 12.2037C15.2219 12.613 15.2219 13.263 14.8608 13.6963Z" fill="#50BF34"/>
</svg>
