<svg width="23" height="22" viewBox="0 0 23 22" fill="none" xmlns="http://www.w3.org/2000/svg">
<path d="M13.7368 10.8086L11.1633 9.60781C10.9387 9.50354 10.7542 9.62042 10.7542 9.86906V12.1309C10.7542 12.3796 10.9387 12.4965 11.1633 12.3922L13.7356 11.1914C13.9614 11.0859 13.9614 10.9141 13.7368 10.8086ZM11.9 0C5.82482 0 0.900024 4.92479 0.900024 11C0.900024 17.0752 5.82482 22 11.9 22C17.9752 22 22.9 17.0752 22.9 11C22.9 4.92479 17.9752 0 11.9 0ZM11.9 15.4687C6.2694 15.4687 6.17086 14.9611 6.17086 11C6.17086 7.03885 6.2694 6.53125 11.9 6.53125C17.5306 6.53125 17.6292 7.03885 17.6292 11C17.6292 14.9611 17.5306 15.4687 11.9 15.4687Z" fill="#003E6E"/>
</svg>
